<svg width="65" height="65" viewBox="0 0 65 65" fill="none" xmlns="http://www.w3.org/2000/svg">
<g clip-path="url(#clip0)">
<path d="M53.2564 25.9562H11.7434C11.2172 25.9562 10.7905 26.3827 10.7905 26.9091C10.7905 27.4354 11.2171 27.862 11.7434 27.862H53.2564C53.7826 27.862 54.2093 27.4354 54.2093 26.9091C54.2093 26.3827 53.7826 25.9562 53.2564 25.9562Z" fill="#9898A7"/>
<path d="M38.4713 30.7631H11.7434C11.2172 30.7631 10.7905 31.1896 10.7905 31.716C10.7905 32.2423 11.2171 32.6689 11.7434 32.6689H38.4713C38.9975 32.6689 39.4242 32.2423 39.4242 31.716C39.424 31.1896 38.9975 30.7631 38.4713 30.7631Z" fill="#9898A7"/>
<path d="M35.422 37.4752C35.9482 37.4752 36.3749 37.0486 36.3749 36.5222C36.3749 35.9959 35.9483 35.5693 35.422 35.5693H11.7434C11.2172 35.5693 10.7905 35.9959 10.7905 36.5222C10.7905 37.0486 11.2171 37.4752 11.7434 37.4752H35.422Z" fill="#9898A7"/>
<path d="M39.4475 21.2137C40.5795 21.2137 41.5005 20.2926 41.5005 19.1607V17.4855C41.5005 16.3534 40.5795 15.4325 39.4475 15.4325H25.5522C24.4202 15.4325 23.4993 16.3535 23.4993 17.4855V19.1607C23.4993 20.2928 24.4202 21.2137 25.5522 21.2137H39.4475ZM25.4051 19.1607V17.4855C25.4051 17.4042 25.4711 17.3382 25.5524 17.3382H39.4476C39.5287 17.3382 39.5949 17.4042 39.5949 17.4855V19.1607C39.5949 19.242 39.5289 19.308 39.4476 19.308H25.5522C25.4711 19.308 25.4051 19.242 25.4051 19.1607Z" fill="#9898A7"/>
<path d="M35.8772 44.8231H11.9303C11.3212 42.3421 9.41865 40.4056 6.94903 39.7534V30.8722C6.94903 30.3459 6.52247 29.9193 5.99612 29.9193C5.46977 29.9193 5.04321 30.3459 5.04321 30.8722V39.7851C5.04321 40.6367 5.61298 41.3777 6.42852 41.5869C8.2489 42.0546 9.65085 43.4812 10.0873 45.31C10.2866 46.1454 11.0311 46.7288 11.8977 46.7288H35.8771C36.4033 46.7288 36.83 46.3022 36.83 45.7759C36.8301 45.2497 36.4034 44.8231 35.8772 44.8231Z" fill="#9898A7"/>
<path d="M58.571 15.7041C56.7507 15.2364 55.3486 13.8098 54.9123 11.9811C54.713 11.1456 53.9685 10.5623 53.1019 10.5623H11.8978C11.0312 10.5623 10.2867 11.1456 10.0876 11.981C9.65109 13.8097 8.24915 15.2363 6.42902 15.704C5.61322 15.9135 5.04346 16.6544 5.04346 17.506V26.4174C5.04346 26.9438 5.47002 27.3703 5.99637 27.3703C6.52271 27.3703 6.94928 26.9438 6.94928 26.4174V17.538C9.41864 16.8855 11.3213 14.9492 11.9305 12.4681H53.0694C53.6787 14.9491 55.5811 16.8855 58.0507 17.5378V34.458C58.0507 34.9844 58.4773 35.4109 59.0036 35.4109C59.53 35.4109 59.9565 34.9844 59.9565 34.458V17.506C59.9564 16.6545 59.3865 15.9135 58.571 15.7041Z" fill="#9898A7"/>
<path d="M60.6097 5.63757H4.39029C1.96955 5.63757 0 7.60712 0 10.028V47.2631C0 49.684 1.96955 51.6535 4.39029 51.6535H42.8214L41.2586 55.7414C40.837 56.8441 41.8453 57.9604 42.9856 57.6532L44.7421 57.179L45.7363 58.7056C46.3812 59.696 47.8767 59.5351 48.2978 58.4329L49.6308 54.9459L50.9639 58.4329C51.3858 59.5368 52.8814 59.6948 53.5255 58.7056L54.5196 57.179L56.276 57.6532C57.4156 57.9609 58.4248 56.8445 58.0031 55.7413L56.4403 51.6535H60.6096C63.0304 51.6535 64.9999 49.684 64.9999 47.2631V10.028C65 7.60712 63.0304 5.63757 60.6097 5.63757ZM41.4573 40.5633C40.982 40.1557 41.2381 39.3859 41.8562 39.336C43.4486 39.2074 44.5499 37.6887 44.1806 36.1365C44.037 35.5335 44.6899 35.0518 45.2246 35.3781C46.5885 36.21 48.3722 35.6287 48.9856 34.1561C49.2245 33.5822 50.0358 33.5791 50.2761 34.1561C50.89 35.6304 52.6754 36.2093 54.0372 35.3781C54.5676 35.0545 55.2259 35.5286 55.0812 36.1365C54.7113 37.6906 55.8151 39.2075 57.4057 39.336C58.0266 39.3862 58.2778 40.1573 57.8044 40.5633C56.5916 41.603 56.5933 43.4794 57.8044 44.5179C58.2797 44.9254 58.0237 45.6952 57.4055 45.7451C55.8132 45.8737 54.7118 47.3925 55.0812 48.9446C55.2255 49.5508 54.5698 50.0276 54.0372 49.703C52.6736 48.8712 50.8894 49.4523 50.2762 50.9251C50.0381 51.497 49.2265 51.5032 48.9858 50.9251C48.3722 49.4519 46.5865 48.8721 45.2248 49.7031C44.6926 50.0274 44.0362 49.5513 44.1807 48.9446C44.5505 47.3905 43.4468 45.8736 41.8562 45.7451C41.2353 45.695 40.984 44.9239 41.4574 44.5179C42.67 43.4781 42.6684 41.6017 41.4573 40.5633ZM46.8402 56.9086L46.1566 55.8587C45.8137 55.3321 45.1755 55.0886 44.5685 55.2519L43.3615 55.5776L44.8373 51.7174C45.3098 51.721 45.785 51.5936 46.2173 51.3299C46.583 51.1067 47.0615 51.2619 47.2266 51.658C47.4609 52.2206 47.8606 52.6615 48.3586 52.9374L46.8402 56.9086ZM54.6931 55.2519C54.0861 55.088 53.4482 55.3322 53.1053 55.8587L52.4215 56.9086L50.9033 52.9374C51.4013 52.6614 51.8009 52.2206 52.0354 51.658C52.1998 51.263 52.6776 51.1061 53.0447 51.33C53.477 51.5938 53.9522 51.7212 54.4245 51.7175L55.9004 55.5778L54.6931 55.2519ZM63.0943 47.2631C63.0943 48.633 61.9797 49.7477 60.6097 49.7477H56.9319C57.0306 49.3516 57.0362 48.9281 56.9352 48.5034C56.8704 48.2314 56.9791 48.0277 57.0497 47.9307C57.1203 47.8336 57.2802 47.6673 57.5589 47.6447C59.8666 47.4586 60.8047 44.5801 59.045 43.0712C58.7196 42.7923 58.7192 42.2893 59.045 42.01C60.8023 40.503 59.8694 37.6229 57.5589 37.4365C57.1316 37.4019 56.8358 36.9952 56.9352 36.5778C57.4712 34.3259 55.0236 32.5438 53.0446 33.7513C52.6789 33.9745 52.2002 33.8194 52.0354 33.4233C52.0353 33.4233 52.0353 33.4233 52.0353 33.4233C51.1451 31.2862 48.1178 31.2834 47.2263 33.4233C47.0615 33.8188 46.5834 33.9749 46.217 33.7513C44.2395 32.5443 41.7902 34.3247 42.3264 36.5778C42.4256 36.9946 42.1305 37.4019 41.7028 37.4365C39.395 37.6227 38.457 40.5012 40.2167 42.01C40.5421 42.2891 40.5425 42.7919 40.2167 43.0712C38.4593 44.5784 39.3924 47.4585 41.7028 47.6447C42.13 47.6794 42.426 48.0859 42.3266 48.5034C42.2255 48.9281 42.2311 49.3517 42.3299 49.7477H4.39029C3.02034 49.7477 1.90569 48.633 1.90569 47.2631V10.028C1.90569 8.65804 3.02034 7.54339 4.39029 7.54339H60.6096C61.9795 7.54339 63.0942 8.65804 63.0942 10.028V47.2631H63.0943Z" fill="#9898A7"/>
<path d="M49.6308 48.1193C52.7069 48.1193 55.2095 45.6168 55.2095 42.5407C55.2095 39.4647 52.7069 36.962 49.6308 36.962C46.5547 36.962 44.0522 39.4647 44.0522 42.5407C44.0522 45.6168 46.5549 48.1193 49.6308 48.1193ZM49.6308 38.8677C51.6561 38.8677 53.3038 40.5155 53.3038 42.5407C53.3038 44.5659 51.6561 46.2136 49.6308 46.2136C47.6057 46.2136 45.9579 44.5659 45.9579 42.5407C45.9579 40.5153 47.6057 38.8677 49.6308 38.8677Z" fill="#9898A7"/>
</g>
<defs>
<clipPath id="clip0">
<rect width="65" height="65" fill="white"/>
</clipPath>
</defs>
</svg>
