<svg width="65" height="65" viewBox="0 0 65 65" fill="none" xmlns="http://www.w3.org/2000/svg">
<g clip-path="url(#clip0)">
<path d="M61.9501 57.1616H57.4069V32.6642C57.4069 32.1383 56.9806 31.7121 56.4548 31.7121C55.9289 31.7121 55.5026 32.1383 55.5026 32.6642V57.1616H41.5194V25.2149C41.5194 24.9694 41.7191 24.7697 41.9645 24.7697H55.0574C55.3029 24.7697 55.5025 24.9694 55.5025 25.2149V28.2133C55.5025 28.7392 55.9288 29.1654 56.4547 29.1654C56.9805 29.1654 57.4068 28.7392 57.4068 28.2133V25.2149C57.4068 23.9193 56.3528 22.8654 55.0574 22.8654H49.4631V15.8066L60.7698 10.3092C61.3902 10.0074 61.7755 9.39145 61.7755 8.70171C61.7755 8.01198 61.3901 7.39613 60.7698 7.09436L50.1276 1.91988C49.57 1.6487 48.9235 1.68336 48.398 2.0123C47.8725 2.34111 47.5588 2.90757 47.5588 3.52748V22.8655H41.9645C40.6689 22.8655 39.6151 23.9195 39.6151 25.215V35.4496H26.0769C24.7815 35.4496 23.7275 36.5036 23.7275 37.799V46.2202H10.1894C8.89383 46.2202 7.83999 47.2741 7.83999 48.5697V57.1618H3.05005C1.36817 57.1616 0 58.5298 0 60.2115C0 61.8933 1.36817 63.2613 3.04992 63.2613H61.95C63.6317 63.2613 64.9999 61.8933 64.9999 60.2115C64.9999 58.5298 63.6318 57.1616 61.9501 57.1616ZM49.4632 3.71423L59.7208 8.70171L49.4632 13.6892V8.70171V3.71423ZM9.74429 48.5696C9.74429 48.324 9.94398 48.1243 10.1894 48.1243H23.7275V50.6472C23.7275 51.1731 24.1538 51.5993 24.6797 51.5993C25.2055 51.5993 25.6318 51.1731 25.6318 50.6472V37.7989C25.6318 37.5533 25.8315 37.3538 26.0769 37.3538H39.6151V57.1615H25.6318V55.0986C25.6318 54.5727 25.2055 54.1465 24.6797 54.1465C24.1538 54.1465 23.7275 54.5727 23.7275 55.0986V57.1615H9.74429V48.5696ZM61.9501 61.3572H3.04992C2.4182 61.3572 1.9043 60.8433 1.9043 60.2117C1.9043 59.5801 2.4182 59.066 3.04992 59.066H61.95C62.5817 59.066 63.0956 59.5801 63.0956 60.2117C63.0956 60.8433 62.5818 61.3572 61.9501 61.3572Z" fill="#9898A7"/>
</g>
<defs>
<clipPath id="clip0">
<rect width="65" height="65" fill="white"/>
</clipPath>
</defs>
</svg>
