<svg width="65" height="65" viewBox="0 0 65 65" fill="none" xmlns="http://www.w3.org/2000/svg">
<path d="M55.8594 6.09375C55.59 6.09375 55.3317 6.20075 55.1412 6.39122C54.9508 6.58169 54.8438 6.84001 54.8438 7.10938V12.1875H10.1562V7.10938C10.1562 6.84001 10.0492 6.58169 9.85878 6.39122C9.66831 6.20075 9.40999 6.09375 9.14062 6.09375C7.25576 6.0959 5.44871 6.84561 4.11591 8.17841C2.78311 9.51121 2.0334 11.3183 2.03125 13.2031V52.0102C2.03394 53.8383 2.76135 55.5908 4.05404 56.8835C5.34672 58.1762 7.09921 58.9036 8.92734 58.9062H56.0727C57.9015 58.9036 59.6546 58.1756 60.9474 56.882C62.2402 55.5885 62.9671 53.8349 62.9688 52.0061V13.2031C62.9666 11.3183 62.2169 9.51121 60.8841 8.17841C59.5513 6.84561 57.7442 6.0959 55.8594 6.09375ZM4.0625 13.2031C4.06379 12.0329 4.46858 10.8988 5.20863 9.99229C5.94867 9.08574 6.97869 8.46211 8.125 8.22656V44.7586C6.58062 44.9821 5.15287 45.7081 4.0625 46.8244V13.2031ZM60.9375 52.0102C60.9348 53.2996 60.4214 54.5354 59.5097 55.4472C58.5979 56.3589 57.3621 56.8723 56.0727 56.875H8.92734C7.63723 56.8723 6.40078 56.3583 5.48891 55.4457C4.57704 54.5331 4.06411 53.2962 4.0625 52.0061V51.7969C4.06411 50.4506 4.59965 49.1599 5.55163 48.2079C6.50361 47.2559 7.79432 46.7204 9.14062 46.7188C9.40999 46.7188 9.66831 46.6117 9.85878 46.4213C10.0492 46.2308 10.1562 45.9725 10.1562 45.7031V14.2188H54.8438V45.7031C54.8438 45.9725 54.9508 46.2308 55.1412 46.4213C55.3317 46.6117 55.59 46.7188 55.8594 46.7188C57.2057 46.7204 58.4964 47.2559 59.4484 48.2079C60.4004 49.1599 60.9359 50.4506 60.9375 51.7969V52.0102ZM60.9375 46.8254C59.8471 45.7091 58.4194 44.9831 56.875 44.7596V8.22656C58.0213 8.46211 59.0513 9.08574 59.7914 9.99229C60.5314 10.8988 60.9362 12.0329 60.9375 13.2031V46.8254Z" fill="#9898A7"/>
<path d="M51.7969 20.3125H22.3438C22.0744 20.3125 21.8161 20.4195 21.6256 20.61C21.4351 20.8004 21.3281 21.0588 21.3281 21.3281V28.4375H13.2031C12.9338 28.4375 12.6754 28.5445 12.485 28.735C12.2945 28.9254 12.1875 29.1838 12.1875 29.4531V49.7656C12.1875 50.035 12.2945 50.2933 12.485 50.4838C12.6754 50.6742 12.9338 50.7812 13.2031 50.7812H37.5781C37.8475 50.7812 38.1058 50.6742 38.2963 50.4838C38.4867 50.2933 38.5938 50.035 38.5938 49.7656V36.5625H45.7031C45.9725 36.5625 46.2308 36.4555 46.4213 36.265C46.6117 36.0746 46.7188 35.8162 46.7188 35.5469C46.7188 35.2775 46.6117 35.0192 46.4213 34.8287C46.2308 34.6383 45.9725 34.5312 45.7031 34.5312H27.4219C27.1525 34.5312 26.8942 34.6383 26.7037 34.8287C26.5133 35.0192 26.4062 35.2775 26.4062 35.5469V40.625C26.4062 40.8944 26.5133 41.1527 26.7037 41.3432C26.8942 41.5336 27.1525 41.6406 27.4219 41.6406C27.6912 41.6406 27.9496 41.5336 28.14 41.3432C28.3305 41.1527 28.4375 40.8944 28.4375 40.625V36.5625H36.5625V48.75H28.4375V44.6875C28.4375 44.4181 28.3305 44.1598 28.14 43.9693C27.9496 43.7789 27.6912 43.6719 27.4219 43.6719C27.1525 43.6719 26.8942 43.7789 26.7037 43.9693C26.5133 44.1598 26.4062 44.4181 26.4062 44.6875V48.75H14.2188V40.625H22.3438C22.6131 40.625 22.8714 40.518 23.0619 40.3275C23.2524 40.1371 23.3594 39.8787 23.3594 39.6094C23.3594 39.34 23.2524 39.0817 23.0619 38.8912C22.8714 38.7008 22.6131 38.5938 22.3438 38.5938H14.2188V30.4688H22.3438C22.6131 30.4688 22.8714 30.3617 23.0619 30.1713C23.2524 29.9808 23.3594 29.7225 23.3594 29.4531V22.3438H36.5625V30.4688C36.5625 30.7381 36.6695 30.9964 36.86 31.1869C37.0504 31.3774 37.3088 31.4844 37.5781 31.4844C37.8475 31.4844 38.1058 31.3774 38.2963 31.1869C38.4867 30.9964 38.5938 30.7381 38.5938 30.4688V22.3438H43.742C43.9698 24.1311 44.7847 25.7921 46.0588 27.0662C47.3329 28.3403 48.9939 29.1552 50.7812 29.383V48.75H42.6562C42.3869 48.75 42.1286 48.857 41.9381 49.0475C41.7476 49.2379 41.6406 49.4963 41.6406 49.7656C41.6406 50.035 41.7476 50.2933 41.9381 50.4838C42.1286 50.6742 42.3869 50.7812 42.6562 50.7812H51.7969C52.0662 50.7812 52.3246 50.6742 52.515 50.4838C52.7055 50.2933 52.8125 50.035 52.8125 49.7656V21.3281C52.8125 21.0588 52.7055 20.8004 52.515 20.61C52.3246 20.4195 52.0662 20.3125 51.7969 20.3125ZM45.7945 22.3438H50.7812V27.3305C49.5361 27.1177 48.3877 26.5237 47.4945 25.6305C46.6013 24.7373 46.0073 23.5889 45.7945 22.3438Z" fill="#9898A7"/>
</svg>
