<svg width="65" height="65" viewBox="0 0 65 65" fill="none" xmlns="http://www.w3.org/2000/svg">
<path d="M48.555 38.5219C48.0283 38.5219 47.6014 38.9488 47.6014 39.4755V43.9141C46.4702 44.3095 45.656 45.3868 45.656 46.6513C45.656 48.2497 46.9565 49.5502 48.555 49.5502C49.8197 49.5502 50.8973 48.7358 51.2923 47.604L53.629 47.6034C54.1558 47.6033 54.5825 47.1762 54.5823 46.6496C54.5822 46.123 54.1554 45.6963 53.6288 45.6963C53.6287 45.6963 53.6285 45.6963 53.6285 45.6963L51.2918 45.697C51.0009 44.8648 50.3408 44.205 49.5085 43.9141V39.4755C49.5087 38.9488 49.0817 38.5219 48.555 38.5219ZM48.555 47.6431C48.0081 47.6431 47.5631 47.1983 47.5631 46.6513C47.5631 46.1043 48.0079 45.6594 48.555 45.6594C49.102 45.6594 49.5469 46.1042 49.5469 46.6513C49.5469 47.1982 49.102 47.6431 48.555 47.6431Z" fill="#9898A7"/>
<path d="M30.2306 52.8691H3.84249C2.77532 52.8691 1.90722 52.001 1.90722 50.9337V17.4612H55.5956V28.8906C55.5956 29.4173 56.0225 29.8442 56.5491 29.8442C57.0757 29.8442 57.5027 29.4172 57.5027 28.8906C57.5027 26.8087 57.5027 12.7886 57.5027 10.6643C57.5027 8.54562 55.7789 6.82198 53.6602 6.82198H51.259V5.77474C51.259 3.64028 49.5225 1.90381 47.388 1.90381C45.2536 1.90381 43.517 3.64015 43.517 5.77461V6.82185H38.8346V5.77461C38.8346 3.64015 37.0981 1.90369 34.9637 1.90369C32.8291 1.90369 31.0926 3.64028 31.0926 5.77461V6.82185H26.4101V5.77461C26.4101 3.64015 24.6736 1.90369 22.5391 1.90369C20.4047 1.90369 18.6682 3.64028 18.6682 5.77461V6.82185H13.9858V5.77461C13.9858 3.64015 12.2493 1.90369 10.1147 1.90369C7.98027 1.90369 6.24381 3.64028 6.24381 5.77461V6.82185H3.84249C1.72377 6.82172 0 8.54549 0 10.6642V50.9339C0 53.0526 1.72377 54.7764 3.84249 54.7764H30.2306C30.7572 54.7764 31.1841 54.3494 31.1841 53.8228C31.1841 53.2962 30.7573 52.8691 30.2306 52.8691ZM45.4241 5.77461C45.4241 4.69183 46.305 3.81078 47.3879 3.81078C48.4708 3.81078 49.3518 4.6917 49.3518 5.77461V9.77618C49.3518 10.859 48.4708 11.74 47.3879 11.74C46.305 11.74 45.4241 10.8591 45.4241 9.77618V5.77461ZM34.9635 3.81078C36.0463 3.81078 36.9274 4.6917 36.9274 5.77461V9.77618C36.9274 10.859 36.0464 11.74 34.9635 11.74C33.8806 11.74 32.9996 10.8591 32.9996 9.77618V7.77781C32.9996 7.77705 32.9997 7.77616 32.9997 7.7754C32.9997 7.77451 32.9996 7.77375 32.9996 7.77298V5.77461C32.9997 4.6917 33.8807 3.81078 34.9635 3.81078ZM20.5753 5.77461C20.5753 4.69183 21.4562 3.81078 22.5391 3.81078C23.6219 3.81078 24.503 4.6917 24.503 5.77461V9.77618C24.503 10.859 23.622 11.74 22.5391 11.74C21.4563 11.74 20.5753 10.8591 20.5753 9.77618V5.77461ZM8.15077 5.77461C8.15077 4.69183 9.0317 3.81078 10.1146 3.81078C11.1974 3.81078 12.0784 4.6917 12.0784 5.77461V7.77413V7.7754V7.77667V9.77618C12.0784 10.859 11.1975 11.74 10.1146 11.74C9.03183 11.74 8.15077 10.8591 8.15077 9.77618V5.77461ZM1.90722 10.6642C1.90722 9.59717 2.77532 8.72894 3.84249 8.72894H6.24368V9.77618C6.24368 11.9106 7.98015 13.6471 10.1147 13.6471C12.2492 13.6471 13.9857 11.9105 13.9857 9.77618V8.72894H18.6681V9.77618C18.6681 11.9106 20.4045 13.6471 22.539 13.6471C24.6735 13.6471 26.4099 11.9105 26.4099 9.77618V8.72894H31.0923V9.77618C31.0923 11.9106 32.8288 13.6471 34.9634 13.6471C37.0979 13.6471 38.8343 11.9105 38.8343 9.77618V8.72894H43.5167V9.77618C43.5167 11.9106 45.2532 13.6471 47.3877 13.6471C49.5221 13.6471 51.2586 11.9105 51.2586 9.77618V8.72894H53.6598C54.727 8.72894 55.5952 9.59705 55.5952 10.6642V15.5539H1.90722V10.6642Z" fill="#9898A7"/>
<path d="M14.9196 23.4675C14.9196 22.457 14.0974 21.6348 13.0868 21.6348H6.92096C5.91041 21.6348 5.08813 22.457 5.08813 23.4675V29.6335C5.08813 30.6441 5.91041 31.4662 6.92096 31.4662H13.0868C14.0974 31.4662 14.9196 30.6441 14.9196 29.6335V23.4675ZM13.0125 29.5591H6.99535V23.542H13.0125V29.5591Z" fill="#9898A7"/>
<path d="M27.4179 23.4675C27.4179 22.457 26.5957 21.6348 25.5851 21.6348H19.4192C18.4087 21.6348 17.5864 22.457 17.5864 23.4675V29.6335C17.5864 30.6441 18.4087 31.4662 19.4192 31.4662H25.5851C26.5957 31.4662 27.4179 30.6441 27.4179 29.6335V23.4675ZM25.5108 29.5591H19.4936V23.542H25.5108V29.5591Z" fill="#9898A7"/>
<path d="M13.0868 37.4019H6.92096C5.91041 37.4019 5.08813 38.2241 5.08813 39.2346V45.4006C5.08813 46.4111 5.91041 47.2333 6.92096 47.2333H13.0868C14.0974 47.2333 14.9196 46.4111 14.9196 45.4006V39.2346C14.9196 38.2241 14.0975 37.4019 13.0868 37.4019ZM13.0125 45.3262H6.99535V39.3091H13.0125V45.3262Z" fill="#9898A7"/>
<path d="M25.5851 37.4019H19.4192C18.4087 37.4019 17.5864 38.2241 17.5864 39.2346V45.4006C17.5864 46.4111 18.4087 47.2333 19.4192 47.2333H25.5851C26.5957 47.2333 27.4179 46.4111 27.4179 45.4006V39.2346C27.4179 38.2241 26.5958 37.4019 25.5851 37.4019ZM25.5108 45.3262H19.4936V39.3091H25.5108V45.3262Z" fill="#9898A7"/>
<path d="M62.1123 37.3548L63.4325 36.0347C64.4871 34.9796 64.4874 33.2725 63.4324 32.2173L62.4396 31.2245C61.3848 30.1696 59.677 30.1692 58.6221 31.2244L57.1867 32.6598C55.672 31.7219 53.9948 31.0227 52.2074 30.6159V28.9363C53.3471 28.5999 54.1814 27.5445 54.1814 26.2973V25.3521C54.1814 23.8348 52.9471 22.6006 51.43 22.6006H45.68C44.1628 22.6006 42.9286 23.8349 42.9286 25.3521V26.2973C42.9286 27.5445 43.763 28.6 44.9027 28.9363V30.6159C43.1153 31.0227 41.4381 31.722 39.9235 32.6598L38.6421 31.3785C39.3802 31.1416 39.9162 30.4493 39.9162 29.6336V23.4676C39.9162 22.4571 39.0939 21.6349 38.0834 21.6349H31.9175C30.907 21.6349 30.0847 22.4571 30.0847 23.4676V29.6336C30.0847 30.6442 30.907 31.4663 31.9175 31.4663H34.4288L33.6779 32.2173C32.6226 33.2722 32.6228 34.9798 33.6777 36.035L34.9977 37.3549C33.1774 40.0011 32.1103 43.2038 32.1103 46.6513C32.1103 55.7191 39.4874 63.0963 48.5553 63.0963C57.6231 63.0963 64.9999 55.7191 64.9999 46.6513C64.9999 43.2038 63.9326 40.0011 62.1123 37.3548ZM59.9708 32.573C60.2808 32.2627 60.7807 32.2628 61.0907 32.5731L62.0836 33.566C62.3934 33.8755 62.3945 34.3755 62.0838 34.6862L60.9331 35.8369C60.2759 35.0859 59.5519 34.395 58.77 33.7734L59.9708 32.573ZM44.8355 25.3521C44.8355 24.8865 45.2142 24.5076 45.6799 24.5076H51.4299C51.8955 24.5076 52.2742 24.8865 52.2742 25.3521V26.2973C52.2742 26.763 51.8955 27.1417 51.4299 27.1417H45.6799C45.2142 27.1417 44.8355 26.763 44.8355 26.2973V25.3521ZM46.8097 29.0488H50.3002V30.299C49.7265 30.2382 49.1444 30.2063 48.555 30.2063C47.9656 30.2063 47.3833 30.2382 46.8098 30.299V29.0488H46.8097ZM31.9917 23.542H38.0089V29.5591H31.9917V23.542ZM35.0261 34.6862C34.7162 34.3766 34.7149 33.877 35.0261 33.5659L36.0189 32.5731C36.3285 32.2632 36.8283 32.2622 37.1392 32.5731L38.3397 33.7734C37.5579 34.3949 36.8338 35.0858 36.1767 35.8369L35.0261 34.6862ZM48.5549 61.1891C40.5388 61.1891 34.0171 54.6674 34.0171 46.6513C34.0171 38.6352 40.5388 32.1135 48.5549 32.1135C56.5709 32.1135 63.0927 38.6352 63.0927 46.6513C63.0927 54.6674 56.5711 61.1891 48.5549 61.1891Z" fill="#9898A7"/>
<path d="M48.555 34.2164C42.6214 34.2164 37.4891 38.4368 36.3516 44.2514C36.2506 44.7682 36.5875 45.2692 37.1045 45.3702C37.6216 45.4717 38.1221 45.1343 38.2233 44.6174C39.1861 39.6957 43.5312 36.1235 48.555 36.1235C54.36 36.1235 59.0827 40.8462 59.0827 46.6512C59.0827 52.4561 54.36 57.1789 48.555 57.1789C43.5427 57.1789 39.1995 53.6163 38.2278 48.7078C38.1254 48.1911 37.624 47.8553 37.1071 47.9575C36.5904 48.0598 36.2547 48.5614 36.3569 49.0781C37.5048 54.8771 42.6348 59.0861 48.555 59.0861C55.4116 59.0861 60.99 53.5079 60.99 46.6512C60.99 39.7944 55.4118 34.2164 48.555 34.2164Z" fill="#9898A7"/>
</svg>
