<svg width="65" height="65" viewBox="0 0 65 65" fill="none" xmlns="http://www.w3.org/2000/svg">
<g clip-path="url(#clip0)">
<path d="M60.8674 48.9417C59.7246 47.2622 57.789 46.8504 55.6877 47.8387L41.0374 54.2895L41.0379 54.2446C41.0383 54.2092 41.0368 54.1737 41.0334 54.1385C40.7771 51.5614 38.8071 49.508 36.2428 49.1453C36.2347 49.144 36.2266 49.143 36.2183 49.1421L26.4777 48.0206C24.4203 47.7274 23.4076 47.0393 21.5015 45.9236C18.6807 44.2735 15.4624 43.4013 12.1943 43.4013H11.587V42.4157C11.587 40.9648 10.4067 39.7844 8.95575 39.7844H6.104C4.65318 39.7844 3.4729 40.9648 3.4729 42.4157V60.6285C3.4729 62.0793 4.65318 63.2597 6.104 63.2597H8.95588C10.3549 63.2597 11.4991 62.1613 11.5792 60.7821L21.1138 64.3311C22.3069 64.775 23.5573 65.0001 24.8298 65.0001H37.9678C39.9818 65.0001 41.9457 64.4326 43.6489 63.3589L60.0781 54.0899C61.2284 53.4403 62.2358 50.9529 60.8674 48.9417ZM59.045 52.4863L42.6923 61.7121C42.6781 61.7201 42.6642 61.7285 42.6504 61.7372C41.2479 62.626 39.6286 63.0958 37.9678 63.0958H24.8298C23.7848 63.0958 22.7578 62.911 21.778 62.5462L11.587 58.753V51.845C11.587 51.319 11.1607 50.8928 10.6348 50.8928C10.109 50.8928 9.68268 51.319 9.68268 51.845V60.6286C9.68268 61.0294 9.35667 61.3555 8.95575 61.3555H6.104C5.70321 61.3555 5.3772 61.0295 5.3772 60.6286V42.4158C5.3772 42.015 5.70321 41.6888 6.104 41.6888H8.95588C9.35667 41.6888 9.68281 42.0149 9.68281 42.4158V47.3923C9.68281 47.9183 10.1091 48.3445 10.635 48.3445C11.1608 48.3445 11.5871 47.9183 11.5871 47.3923V45.3056H12.1946C15.125 45.3056 18.0108 46.0876 20.5402 47.5673C22.5611 48.7485 23.7887 49.5632 26.223 49.9078C26.2312 49.9091 26.2393 49.9101 26.2475 49.911L35.9878 51.0325C37.6583 51.2739 38.9442 52.6031 39.1333 54.277L39.1267 54.8049C33.4677 54.7394 31.315 54.9935 27.6939 54.4649L26.0078 54.2187C25.4878 54.1432 25.004 54.5029 24.9281 55.0232C24.8522 55.5436 25.2124 56.0271 25.7327 56.103L27.4188 56.3491C31.2657 56.911 33.4845 56.6368 40.0671 56.7092C40.1989 56.7092 40.3377 56.6785 40.4508 56.6284L56.4666 49.5766C56.4744 49.5731 56.4822 49.5695 56.4899 49.5659C57.3524 49.1581 58.5389 48.9046 59.2932 50.0129C59.8213 50.7895 59.711 51.8363 59.045 52.4863Z" fill="#9898A7"/>
<path d="M15.2646 22.0303C16.033 22.6487 16.3099 23.6823 15.9537 24.6023C14.9936 27.0813 16.5729 29.8078 19.1944 30.2152C19.836 30.3149 20.3816 30.6778 20.7239 31.1915L16.2653 39.837C15.9977 40.3561 16.0547 40.9645 16.4141 41.4248C16.7735 41.8849 17.3497 42.0874 17.9183 41.9538L22.7815 40.8085L24.6679 45.4347C24.8885 45.9756 25.3879 46.3276 25.9714 46.3535C25.9943 46.3545 26.0172 46.355 26.0399 46.355C26.596 46.355 27.094 46.0528 27.3512 45.5541L31.5242 37.4626C32.1706 37.618 32.8345 37.6182 33.4818 37.4626L37.6547 45.5541C37.9118 46.0528 38.41 46.355 38.966 46.355C38.9888 46.355 39.0116 46.3545 39.0346 46.3535C39.6179 46.3276 40.1174 45.9754 40.338 45.4347L42.2244 40.8085L47.0876 41.9538C47.6562 42.0878 48.2325 41.8851 48.5919 41.4248C48.9513 40.9645 49.0083 40.3561 48.7407 39.837L44.2821 31.1915C44.6243 30.6778 45.17 30.3149 45.8115 30.2152C48.4384 29.8069 50.0102 27.0762 49.0522 24.6023C48.696 23.6823 48.9729 22.6487 49.7413 22.0303C51.8106 20.3646 51.8098 17.214 49.7413 15.5488C48.973 14.9305 48.6961 13.8968 49.0522 12.977C50.0121 10.4979 48.4329 7.77144 45.8116 7.36405C44.8369 7.21259 44.0802 6.45595 43.9288 5.48133C43.5206 2.85442 40.7897 1.28249 38.3158 2.2406C37.3956 2.59683 36.3624 2.31982 35.7438 1.5515C34.0767 -0.519614 30.926 -0.515044 29.2625 1.5515C28.644 2.31982 27.6106 2.59658 26.6907 2.2406C24.2117 1.28058 21.485 2.85988 21.0777 5.48133C20.9262 6.45595 20.1696 7.21259 19.195 7.36405C16.5681 7.77233 14.9964 10.503 15.9543 12.977C16.3105 13.8968 16.0336 14.9305 15.2652 15.5488C13.1939 17.216 13.1978 20.3667 15.2646 22.0303ZM26.0822 43.8598L24.4073 39.7519C24.1307 39.0738 23.4126 38.7032 22.6993 38.8713L18.3815 39.8883L21.622 33.6048C22.6434 35.3045 24.7694 36.0826 26.6902 35.3386C27.6098 34.9819 28.6435 35.2592 29.2621 36.0278C29.4326 36.2395 29.6219 36.4306 29.8252 36.6022L26.0822 43.8598ZM42.306 38.8713C41.5932 38.7041 40.8749 39.0739 40.5981 39.7521L38.9233 43.8598L35.1803 36.6022C35.3835 36.4307 35.5728 36.2397 35.7433 36.0278C36.362 35.2595 37.3956 34.9828 38.3151 35.3386C40.2363 36.0825 42.3622 35.3043 43.3834 33.6048L46.6238 39.8883L42.306 38.8713ZM16.4586 17.0324C17.8757 15.8919 18.3864 13.9858 17.7296 12.2896C17.2089 10.9453 18.0652 9.46677 19.4869 9.24588C21.2843 8.96658 22.6796 7.57124 22.9589 5.77371C23.1802 4.3498 24.6608 3.49655 26.0026 4.01642C27.6991 4.67328 29.6049 4.16267 30.7454 2.74562C31.6495 1.62247 33.3579 1.62488 34.26 2.74562C35.4004 4.16242 37.3065 4.67315 39.003 4.01642C40.3468 3.49579 41.8257 4.35209 42.0466 5.77371C42.3258 7.57111 43.7212 8.96645 45.5187 9.24588C46.9431 9.46715 47.7955 10.9479 47.2759 12.2896C46.619 13.9858 47.1298 15.8919 48.5467 17.0324C49.6696 17.9362 49.6674 19.6449 48.5467 20.5469C47.1296 21.6874 46.6189 23.5935 47.2759 25.2898C47.7964 26.6341 46.9401 28.1126 45.5186 28.3335C43.7212 28.6128 42.3258 30.0082 42.0466 31.8057C41.8255 33.2277 40.3472 34.0831 39.0029 33.5629C37.3068 32.9065 35.4006 33.4169 34.26 34.8338C33.3562 35.9567 31.6476 35.9545 30.7454 34.8338C29.6068 33.4191 27.7015 32.9051 26.0025 33.5629C24.6588 34.0836 23.1798 33.2274 22.9589 31.8057C22.6796 30.0083 21.2843 28.613 19.4867 28.3335C18.0623 28.1123 17.2099 26.6315 17.7296 25.2898C18.3864 23.5935 17.8757 21.6874 16.4586 20.5469C15.3357 19.643 15.3382 17.9343 16.4586 17.0324Z" fill="#9898A7"/>
<path d="M20.5028 20.0794C19.986 20.1761 19.6453 20.6735 19.742 21.1904C20.8889 27.3219 26.2556 31.7724 32.5028 31.7724C39.6614 31.7724 45.4854 25.9484 45.4854 18.7898C45.4854 11.6312 39.6614 5.80719 32.5028 5.80719C26.2565 5.80719 20.8899 10.2568 19.7423 16.3872C19.6455 16.904 19.986 17.4014 20.503 17.4983C21.0203 17.5948 21.5173 17.2544 21.6141 16.7376C22.5931 11.5076 27.1724 7.71149 32.5028 7.71149C38.6114 7.71149 43.5811 12.6812 43.5811 18.7898C43.5811 24.8984 38.6114 29.8681 32.5028 29.8681C27.1717 29.8681 22.5922 26.0714 21.6138 20.8403C21.5172 20.3234 21.0199 19.9838 20.5028 20.0794Z" fill="#9898A7"/>
<path d="M39.5138 15.2509L35.2788 15.0633L33.7917 11.0933C33.3456 9.9029 31.6596 9.90316 31.2136 11.0935L29.7266 15.0634L25.4915 15.2511C24.223 15.307 23.699 16.9097 24.6948 17.7029L28.0109 20.344L26.8806 24.4299C26.5416 25.6554 27.9056 26.646 28.9663 25.9453L32.5027 23.6077L36.0394 25.9455C37.0961 26.6436 38.4651 25.6594 38.125 24.4299L36.9947 20.344L40.3107 17.7029C41.3054 16.9103 40.7835 15.3069 39.5138 15.2509ZM35.5354 19.0717C35.103 19.4161 34.9189 19.9829 35.0663 20.5154L35.914 23.5794L33.2618 21.8263C33.2618 21.8263 33.2617 21.8262 33.2615 21.8262C33.0311 21.674 32.7669 21.5978 32.5027 21.5978C32.2385 21.5978 31.9742 21.674 31.7435 21.8263L29.0914 23.5794L29.939 20.5156C30.0866 19.9829 29.9023 19.4161 29.4699 19.0717L26.9832 17.091L30.1595 16.9503C30.7115 16.9258 31.1936 16.5756 31.3874 16.0581L32.5026 13.081L33.6179 16.0582C33.8117 16.5756 34.2938 16.9258 34.846 16.9503L38.022 17.091L35.5354 19.0717Z" fill="#9898A7"/>
</g>
<defs>
<clipPath id="clip0">
<rect width="65" height="65" fill="white"/>
</clipPath>
</defs>
</svg>
