<svg width="140" height="51" viewBox="0 0 140 51" fill="none" xmlns="http://www.w3.org/2000/svg">
<path d="M33.0654 50.0002C33.0577 49.3083 33.05 48.6164 33.0424 47.9322C33.0347 47.0866 33.05 46.2409 33.0347 45.3953C33.027 45.0263 33.1804 44.8802 33.5333 44.8956C33.7481 44.9033 33.9706 44.8956 34.1854 44.8956C68.9967 44.8956 103.808 44.8956 138.612 44.8956C138.804 44.8956 138.995 44.8956 139.187 44.8956C139.617 44.8879 139.716 44.9648 139.716 45.3953C139.732 46.8329 139.732 48.2628 139.732 49.7003C139.732 49.8003 139.709 49.9002 139.693 50.0079C104.153 50.0002 68.6055 50.0002 33.0654 50.0002Z" fill="#24242E"/>
<path d="M44.4261 13.9069C44.8864 14.1068 45.2622 14.2375 45.5921 14.4297C46.7735 15.1292 47.4869 16.1747 47.7093 17.5278C47.9548 19.0192 47.9548 20.5105 47.4485 21.9635C47.0266 23.1858 46.2058 24.0545 45.0551 24.6234C44.1269 25.0846 43.1527 25.2538 42.1248 25.2461C39.3632 25.2307 36.6016 25.2461 33.84 25.2461C33.3414 25.2461 33.28 25.1846 33.28 24.7003C33.28 17.8045 33.28 10.9164 33.28 4.02069C33.28 3.53637 33.3414 3.47487 33.84 3.47487C36.3178 3.47487 38.8032 3.45949 41.281 3.48256C42.6004 3.49793 43.8968 3.63631 45.1012 4.28206C46.574 5.0662 47.3795 6.29621 47.4715 7.92598C47.5329 9.00224 47.5482 10.1016 47.1954 11.1548C46.8425 12.2156 46.1828 12.9998 45.1779 13.4995C44.9554 13.6302 44.7329 13.7455 44.4261 13.9069ZM37.7062 18.7424C37.7062 18.7424 37.6986 18.7424 37.7062 18.7424C37.6986 19.6495 37.6986 20.5567 37.6986 21.4715C37.6986 21.7636 37.8213 21.9327 38.1282 21.9251C38.9183 21.9174 39.7161 21.9481 40.5062 21.9097C41.6415 21.8559 42.6157 21.4407 43.0376 20.3107C43.2524 19.7187 43.2985 19.0345 43.2754 18.3965C43.2141 16.6744 42.0327 15.5982 40.3144 15.6059C39.624 15.6059 38.9336 15.6059 38.2432 15.5982C37.7983 15.5905 37.7062 15.6751 37.7062 16.1209C37.7062 16.9973 37.7062 17.866 37.7062 18.7424ZM39.601 6.84203C39.1024 6.84203 38.6038 6.84203 38.1051 6.84203C37.8213 6.84203 37.6832 6.97272 37.6909 7.26484C37.7062 7.76454 37.7062 8.26423 37.7062 8.76392C37.7062 9.76331 37.6986 10.7627 37.6986 11.7621C37.6986 12.0311 37.7139 12.2925 38.0898 12.2925C38.972 12.3002 39.8541 12.3386 40.7363 12.3079C41.6108 12.2771 42.2935 11.9081 42.7078 11.0856C43.076 10.3553 42.9993 9.58649 42.9379 8.82542C42.8535 7.71841 41.864 6.71903 40.6749 6.83434C40.3221 6.87278 39.9615 6.84203 39.601 6.84203Z" fill="#24242E"/>
<path d="M27.1037 21.9479C26.9426 22.2401 26.7815 22.5476 26.6051 22.8397C24.718 26.0147 22.8309 29.1973 20.9438 32.3723C19.3943 34.9784 17.8294 37.5691 16.2798 40.1752C15.5894 41.3283 14.922 42.4891 14.2393 43.65C14.0475 43.9805 13.9325 43.9959 13.7407 43.673C12.6361 41.805 11.5391 39.9292 10.4268 38.0534C9.43721 36.3775 8.4323 34.717 7.4504 33.0411C6.4685 31.3806 5.50195 29.7047 4.52772 28.0442C3.40774 26.1377 2.28776 24.2312 1.14477 22.34C0.945322 22.0094 0.952993 21.7558 1.14477 21.4252C2.55625 19.0651 3.94472 16.6973 5.34085 14.3296C6.32275 12.669 7.31232 11.0085 8.29422 9.34801C9.77474 6.83417 11.2553 4.32802 12.7358 1.81418C13.0503 1.28374 13.3495 0.753299 13.664 0.222856C13.8404 -0.0692721 14.0168 -0.0692721 14.1703 0.192106C15.2519 2.01406 16.3335 3.8437 17.4228 5.66566C18.7192 7.84124 20.008 10.0168 21.3044 12.1924C22.8846 14.8369 24.4649 17.4815 26.0451 20.126C26.3366 20.618 26.6434 21.11 26.9349 21.602C26.9886 21.7019 27.0347 21.8096 27.1037 21.9479ZM13.9785 4.81234C13.8404 4.98915 13.7177 5.11215 13.6256 5.25822C13.0886 6.15766 12.567 7.0648 12.03 7.97193C10.5572 10.455 9.07667 12.9381 7.59615 15.4212C6.40713 17.4277 5.21811 19.4418 4.01376 21.4483C3.82198 21.7634 3.79129 22.0325 4.02143 22.3323C4.09814 22.4323 4.15951 22.5476 4.22855 22.6552C5.60167 24.9769 6.98246 27.2985 8.35559 29.6201C9.73638 31.9572 11.1172 34.2865 12.498 36.6235C12.9276 37.3462 13.3648 38.0688 13.7944 38.7991C13.9478 39.0605 14.0936 39.1066 14.2623 38.8222C14.3007 38.753 14.3467 38.6915 14.3851 38.63C15.9193 36.0162 17.4535 33.4024 18.9954 30.7963C20.6753 27.9443 22.3553 25.0845 24.0199 22.2247C24.1043 22.0786 24.112 21.8096 24.0353 21.6712C22.3476 18.796 20.637 15.9286 18.9263 13.0611C17.3538 10.4089 15.7812 7.76437 14.201 5.11215C14.1549 5.0199 14.0859 4.95072 13.9785 4.81234Z" fill="#24242E"/>
<path d="M61.6323 11.6545C61.6323 9.13294 61.6323 6.60372 61.6323 4.0822C61.6323 3.52101 61.6707 3.48257 62.246 3.48257C63.32 3.48257 64.3939 3.48257 65.4679 3.48257C66.0049 3.48257 66.0739 3.54407 66.0739 4.06682C66.0739 8.20274 66.0662 12.3387 66.0739 16.4823C66.0739 16.982 66.1199 17.474 66.1429 17.9737C66.1966 19.1652 66.0355 20.3337 65.6213 21.4407C65.0613 22.9552 64.1101 24.1545 62.6219 24.8771C61.5173 25.4152 60.3513 25.6305 59.1392 25.6228C58.1727 25.6151 57.1985 25.6766 56.2472 25.4229C54.2911 24.9078 52.8336 23.8162 51.9898 21.9404C51.5065 20.8565 51.3301 19.711 51.3301 18.5348C51.3301 13.7147 51.3301 8.90231 51.3301 4.0822C51.3301 3.52101 51.3838 3.46719 51.9438 3.47488C53.0177 3.48257 54.0917 3.48257 55.1656 3.47488C55.7179 3.47488 55.7486 3.49794 55.7486 4.05145C55.7486 8.7255 55.7333 13.3995 55.7563 18.0813C55.764 19.3113 56.0325 20.5029 56.8072 21.5099C57.2291 22.0558 57.8045 22.3709 58.4949 22.3633C59.0012 22.3556 59.5151 22.3018 59.9984 22.1634C60.8269 21.9251 61.2871 21.2947 61.4252 20.4721C61.5403 19.7956 61.6247 19.1037 61.6323 18.4195C61.6554 16.1671 61.64 13.9146 61.6323 11.6545Z" fill="#24242E"/>
<path d="M83.6332 19.3112C83.6332 20.9486 83.6332 22.5938 83.6332 24.2312C83.6332 24.7617 83.5872 24.7771 83.0732 24.9078C81.562 25.2998 80.0201 25.5612 78.4629 25.6534C76.6985 25.7611 74.9265 25.7534 73.2388 25.1307C71.7737 24.5849 70.7841 23.5701 70.2548 22.0557C69.4647 19.7571 69.0581 17.4124 69.0274 14.9831C68.9967 12.6691 69.2499 10.3859 69.6641 8.11039C70.0477 5.99631 71.2674 4.55873 73.2388 3.81304C75.5632 2.93665 77.9412 2.94434 80.2426 3.86685C81.8842 4.52798 82.9658 5.80412 83.3724 7.55689C83.5411 8.27952 83.5565 9.04828 83.6255 9.79397C83.6562 10.1169 83.5258 10.2706 83.1576 10.2629C81.9916 10.2399 80.8332 10.2475 79.6672 10.2552C79.0459 10.2552 78.9845 10.2014 79.0919 9.60178C79.2146 8.89453 79.0996 8.23339 78.8387 7.57995C78.5319 6.79582 77.8645 6.52675 77.1358 6.373C75.7396 6.0655 74.8498 6.83426 74.2284 8.01814C73.7835 8.87146 73.7835 9.80935 73.7375 10.7165C73.6454 12.5923 73.5764 14.4757 73.6071 16.3592C73.6301 17.766 73.7298 19.1805 74.1747 20.5335C74.75 22.2479 76.1078 22.7783 77.7188 22.5015C78.179 22.4247 78.6316 22.2555 79.0765 22.1172C79.3757 22.0249 79.5291 21.825 79.5215 21.4868C79.5061 20.2414 79.5061 19.0037 79.5138 17.7583C79.5138 17.2586 79.4448 17.1817 78.9385 17.1894C78.4245 17.1894 77.9182 17.1817 77.4042 17.2048C77.1204 17.2125 77.0053 17.0972 77.0053 16.8281C77.0053 15.944 77.0053 15.06 77.0053 14.1759C77.0053 13.9145 77.1281 13.8223 77.3889 13.8223C79.3297 13.83 81.2782 13.83 83.2189 13.8223C83.5641 13.8223 83.6255 13.9914 83.6255 14.2758C83.6178 15.5212 83.6255 16.7589 83.6255 18.0043C83.6332 18.4117 83.6332 18.8653 83.6332 19.3112Z" fill="#24242E"/>
<path d="M94.9788 3.48253C95.7612 3.48253 96.536 3.49791 97.3184 3.47484C97.6943 3.46716 97.8784 3.62091 97.9782 3.96685C98.308 5.1738 98.6532 6.38075 98.9984 7.5877C99.5354 9.45578 100.08 11.3239 100.609 13.1919C101.131 15.037 101.63 16.8897 102.159 18.7347C102.696 20.6258 103.256 22.517 103.808 24.4081C104.046 25.2384 104.038 25.2461 103.187 25.2461C102.075 25.2461 100.962 25.2307 99.8499 25.2537C99.4433 25.2614 99.2669 25.1461 99.1749 24.7233C98.8757 23.3857 98.5228 22.0634 98.2083 20.7335C98.1393 20.4413 97.9858 20.3491 97.6943 20.3491C95.8763 20.3645 94.0659 20.3568 92.2479 20.3568C91.8183 20.3568 91.6802 20.4644 91.5805 20.8795C91.2736 22.171 90.9514 23.4625 90.6446 24.7617C90.5756 25.0616 90.4145 25.1922 90.1076 25.1846C88.9416 25.1769 87.7833 25.1846 86.6173 25.1769C86.2107 25.1769 86.1647 25.0846 86.2721 24.6772C86.625 23.378 86.9702 22.0788 87.323 20.7873C87.6299 19.6956 87.9521 18.604 88.2589 17.5047C88.5964 16.2823 88.9263 15.06 89.2561 13.8377C89.7931 11.8774 90.3378 9.91703 90.8824 7.9567C91.2583 6.60369 91.6495 5.25067 92.0254 3.88997C92.1098 3.57478 92.2709 3.45947 92.5931 3.46715C93.3909 3.49791 94.1886 3.48253 94.9788 3.48253ZM94.9941 8.12583C94.9404 8.13351 94.8867 8.14889 94.8407 8.15658C94.81 8.24883 94.764 8.34108 94.741 8.43333C94.6106 9.00221 94.4878 9.57878 94.3497 10.1553C93.8204 12.2617 93.2911 14.3681 92.7618 16.4745C92.6314 17.005 92.7005 17.0972 93.2298 17.0972C94.3267 17.0972 95.4237 17.0972 96.5283 17.0972C96.9042 17.0972 97.0039 16.9742 96.9196 16.6052C96.8275 16.2055 96.7355 15.8057 96.6511 15.406C96.1831 13.1766 95.7152 10.9549 95.2396 8.72546C95.1859 8.51789 95.0708 8.3257 94.9941 8.12583Z" fill="#24242E"/>
<path d="M123.668 16.2055C123.668 13.3841 123.668 10.5705 123.668 7.74915C123.668 7.26483 123.592 7.18795 123.116 7.18795C121.758 7.18795 120.408 7.19564 119.05 7.19564C118.605 7.19564 118.513 7.10339 118.513 6.65751C118.513 5.77344 118.513 4.88937 118.513 4.0053C118.513 3.5671 118.598 3.48254 119.027 3.48254C123.615 3.48254 128.202 3.48254 132.789 3.47485C133.127 3.47485 133.28 3.61323 133.273 3.95917C133.265 4.88168 133.265 5.80419 133.273 6.7267C133.273 7.06495 133.127 7.21102 132.789 7.21102C131.462 7.19564 130.127 7.19564 128.8 7.19564C128.263 7.19564 128.194 7.26483 128.194 7.78758C128.194 10.3091 128.194 12.8306 128.194 15.3598C128.194 18.4579 128.194 21.556 128.194 24.6618C128.194 25.1846 128.118 25.2614 127.596 25.2614C126.461 25.2614 125.318 25.2538 124.182 25.2614C123.714 25.2614 123.645 25.2076 123.645 24.7464C123.645 22.9398 123.645 21.1332 123.645 19.3266C123.661 18.2734 123.661 17.2433 123.668 16.2055Z" fill="#24242E"/>
<path d="M111.993 16.2132C111.993 19.0345 111.993 21.8482 111.993 24.6695C111.993 25.1769 111.932 25.2461 111.425 25.2461C110.29 25.2461 109.147 25.2461 108.012 25.2461C107.551 25.2461 107.467 25.1692 107.467 24.7079C107.467 19.096 107.467 13.4841 107.475 7.87215C107.475 7.22639 107.436 7.18027 106.777 7.18795C105.473 7.19564 104.169 7.19564 102.864 7.19564C102.427 7.19564 102.35 7.11877 102.35 6.68057C102.35 5.78113 102.358 4.88937 102.35 3.98992C102.343 3.64398 102.458 3.47485 102.834 3.47485C107.413 3.48254 111.985 3.47485 116.565 3.47485C116.887 3.47485 117.033 3.61323 117.033 3.93611C117.025 4.85862 117.033 5.78113 117.033 6.70364C117.033 7.0957 116.918 7.19564 116.527 7.19564C115.223 7.19564 113.918 7.19564 112.614 7.18795C112.039 7.18795 112.001 7.22639 112.001 7.78758C111.993 10.6012 111.993 13.4072 111.993 16.2132Z" fill="#24242E"/>
<path d="M135.459 14.322C135.459 10.9011 135.459 7.48008 135.459 4.0668C135.459 3.55173 135.536 3.48254 136.065 3.48254C137.2 3.48254 138.343 3.48254 139.479 3.48254C139.916 3.48254 140 3.55942 140 3.99761C140 10.9164 140 17.8276 140 24.7464C140 25.1769 139.924 25.2538 139.479 25.2538C138.343 25.2538 137.2 25.2538 136.065 25.2538C135.543 25.2538 135.459 25.1846 135.459 24.6618C135.459 21.2178 135.459 17.7737 135.459 14.322Z" fill="#24242E"/>
<path d="M96.8505 36.247C96.8582 36.1163 96.8812 35.9779 96.8812 35.8472C96.8735 34.2098 96.8735 32.5646 96.8582 30.9272C96.8582 30.5813 97.0039 30.4352 97.3491 30.4506C97.6176 30.4583 97.8861 30.4506 98.1546 30.4506C98.5918 30.4583 98.6685 30.5351 98.6685 30.9656C98.6685 32.0188 98.6685 33.0643 98.6685 34.1175C98.6685 35.7704 98.6685 37.4232 98.6685 39.076C98.6685 39.5219 98.5918 39.5988 98.1622 39.6065C97.8324 39.6142 97.4949 39.5911 97.165 39.6142C96.8505 39.6295 96.651 39.4835 96.513 39.2298C95.5387 37.477 94.5645 35.7166 93.5826 33.9715C93.5136 33.8562 93.3832 33.7793 93.2758 33.6793C93.2374 33.8177 93.1607 33.9484 93.1607 34.0868C93.153 35.7242 93.1607 37.3694 93.1607 39.0068C93.1607 39.5219 93.0763 39.6065 92.5624 39.6065C92.2785 39.6065 92.0024 39.5988 91.7185 39.6142C91.4194 39.6295 91.2966 39.4835 91.2966 39.2067C91.2966 38.8377 91.2966 38.461 91.2966 38.092C91.2966 35.7242 91.2966 33.3488 91.2966 30.981C91.2966 30.5121 91.3503 30.4583 91.8259 30.4583C92.0791 30.4583 92.3399 30.489 92.593 30.4506C93.176 30.3583 93.4982 30.6197 93.7667 31.1194C94.6336 32.7568 95.5464 34.3712 96.4363 35.9933C96.5053 36.124 96.5743 36.2624 96.6434 36.3931C96.7047 36.3469 96.7815 36.2931 96.8505 36.247Z" fill="#24242E"/>
<path d="M119.388 35.0323C119.388 33.687 119.388 32.3417 119.388 30.9963C119.388 30.512 119.465 30.4428 119.94 30.4505C121.26 30.4582 122.571 30.4198 123.891 30.4659C124.397 30.4813 124.949 30.5812 125.402 30.7964C126.461 31.2961 126.952 32.5031 126.683 33.6485C126.56 34.1867 126.338 34.6633 125.862 34.9862C125.678 35.1169 125.579 35.286 125.816 35.4474C126.361 35.8164 126.438 36.393 126.476 36.9696C126.514 37.4923 126.499 38.0228 126.553 38.5378C126.576 38.7762 126.683 39.0068 126.783 39.2297C126.883 39.4604 126.814 39.591 126.583 39.5987C126.085 39.6141 125.586 39.6141 125.088 39.591C124.773 39.5757 124.65 39.345 124.627 39.0683C124.597 38.5225 124.574 37.969 124.566 37.4155C124.558 36.4391 124.19 36.0624 123.223 36.0548C122.725 36.0548 122.226 36.0471 121.728 36.0548C121.267 36.0548 121.206 36.1239 121.206 36.5929C121.206 37.4155 121.214 38.2303 121.214 39.0529C121.214 39.5142 121.137 39.591 120.684 39.591C120.431 39.591 120.17 39.591 119.917 39.591C119.465 39.591 119.388 39.5142 119.388 39.0529C119.388 37.723 119.388 36.3776 119.388 35.0323ZM122.625 34.4788C122.932 34.4788 123.246 34.5326 123.538 34.4634C123.876 34.3942 124.236 34.2789 124.505 34.0714C124.873 33.7869 124.903 33.341 124.773 32.9105C124.635 32.4339 124.282 32.1418 123.799 32.1033C123.039 32.0495 122.272 32.0495 121.505 32.0649C121.405 32.0649 121.221 32.2571 121.221 32.3724C121.191 32.949 121.206 33.5255 121.206 34.0944C121.206 34.3635 121.359 34.4788 121.62 34.4788C121.965 34.4788 122.295 34.4788 122.625 34.4788Z" fill="#24242E"/>
<path d="M63.9797 35.0247C64.0334 33.9407 64.1869 32.8952 64.7929 31.9727C65.4219 31.0271 66.3348 30.5121 67.4317 30.2968C68.7281 30.0431 69.9172 30.2814 70.9988 31.0271C71.8119 31.5883 72.2568 32.4032 72.4793 33.3334C72.7478 34.4404 72.7631 35.5705 72.4946 36.6852C72.1725 38.0151 71.4284 39.0145 70.1013 39.5142C68.4136 40.1446 66.8411 39.9601 65.4219 38.8223C64.7699 38.2996 64.4093 37.5693 64.2252 36.7698C64.1025 36.2009 64.0564 35.6089 63.9797 35.0247ZM65.9129 35.2399C66.0049 35.6166 66.0893 36.2239 66.2964 36.7928C66.6186 37.6692 67.3243 38.1381 68.2372 38.1843C69.1654 38.2381 69.9172 37.8306 70.3237 36.9696C70.9451 35.6551 70.9451 34.3251 70.2777 33.0259C69.6333 31.7805 67.9073 31.45 66.8257 32.5032C66.1046 33.195 65.9972 34.0868 65.9129 35.2399Z" fill="#24242E"/>
<path d="M77.4118 39.8832C76.3225 39.8447 75.3022 39.6679 74.4661 38.8838C73.9598 38.4072 73.7527 37.7998 73.6453 37.1464C73.6069 36.9081 73.745 36.7851 73.9751 36.7774C74.374 36.7697 74.7729 36.7466 75.1642 36.7851C75.3022 36.8004 75.517 36.9465 75.5477 37.0772C75.7625 37.9382 76.4145 38.1996 77.1586 38.238C77.6266 38.2611 78.1175 38.1381 78.5701 37.9843C78.946 37.8613 79.2221 37.5231 79.2145 37.108C79.2068 36.6851 78.9076 36.4007 78.5241 36.2777C77.8951 36.0778 77.243 35.9471 76.614 35.7396C75.9543 35.5243 75.2179 35.3859 74.6655 34.9939C73.185 33.9484 73.5916 31.3038 75.2792 30.5889C76.5756 30.0431 77.8951 30.0277 79.1761 30.612C80.0583 31.0117 80.5723 31.7497 80.7257 32.7107C80.7947 33.1258 80.695 33.218 80.2808 33.2257C80.1427 33.2257 79.9969 33.2104 79.8588 33.2257C79.2912 33.3026 78.9076 33.1796 78.6775 32.5646C78.5701 32.2802 78.1405 32.0803 77.8183 31.9265C77.2353 31.6575 76.2534 31.865 75.8776 32.2648C75.3789 32.8029 75.54 33.5102 76.2458 33.7177C76.9899 33.9407 77.757 34.0944 78.5011 34.3174C79.0227 34.4711 79.552 34.6402 80.0353 34.8862C80.6029 35.1707 80.9175 35.6857 81.0172 36.3161C81.2933 38.1688 80.3114 39.4142 78.5011 39.7371C78.1482 39.814 77.7723 39.837 77.4118 39.8832Z" fill="#24242E"/>
<path d="M135.405 30.4428C135.574 30.4428 135.735 30.4428 135.904 30.4428C136.487 30.4351 136.563 30.5197 136.748 31.0578C137.208 32.4108 137.691 33.7562 138.151 35.1092C138.573 36.3392 138.995 37.5769 139.394 38.8146C139.64 39.5833 139.617 39.5833 138.796 39.591C137.185 39.6064 137.645 39.6372 137.169 38.2918C136.985 37.7614 137.008 37.7306 136.441 37.7306C135.712 37.7306 134.983 37.7383 134.254 37.723C133.917 37.7153 133.694 37.7998 133.61 38.1611C133.533 38.484 133.395 38.7915 133.303 39.1144C133.211 39.445 133.019 39.6064 132.667 39.5987C132.298 39.5833 131.922 39.591 131.554 39.5987C131.232 39.6064 131.132 39.468 131.24 39.1682C131.723 37.7921 132.214 36.4238 132.69 35.0477C133.127 33.7946 133.549 32.5338 133.986 31.2731C134.055 31.0655 134.124 30.8579 134.247 30.6811C134.316 30.5735 134.469 30.4736 134.6 30.4582C134.868 30.4274 135.137 30.4505 135.405 30.4428C135.405 30.4505 135.405 30.4428 135.405 30.4428ZM135.359 36.1316C135.605 36.1316 135.842 36.1393 136.088 36.1316C136.326 36.1239 136.441 36.0009 136.364 35.7472C136.203 35.2322 136.042 34.7248 135.888 34.2097C135.789 33.8792 135.712 33.5409 135.597 33.218C135.559 33.1181 135.428 33.0489 135.328 32.9874C135.313 32.9797 135.198 33.0643 135.183 33.1258C134.914 34.0022 134.646 34.8862 134.385 35.7703C134.316 35.9932 134.446 36.1162 134.661 36.1239C134.899 36.1393 135.129 36.1316 135.359 36.1316Z" fill="#24242E"/>
<path d="M89.1945 39.6064C88.1129 39.6064 88.1129 39.6064 87.8598 38.5379C87.8367 38.4379 87.8061 38.338 87.783 38.2381C87.6833 37.8691 87.4839 37.6999 87.0696 37.723C86.3332 37.7614 85.5891 37.7461 84.845 37.723C84.5228 37.7153 84.3387 37.846 84.239 38.1381C84.1239 38.4764 83.9935 38.8146 83.9092 39.1606C83.8324 39.4681 83.656 39.5911 83.3722 39.5988C82.9733 39.6064 82.5821 39.6064 82.1832 39.5988C81.838 39.5911 81.7459 39.4604 81.861 39.1298C82.2982 37.8767 82.7431 36.6237 83.1881 35.3706C83.7097 33.8869 84.2313 32.4032 84.7376 30.9195C84.8604 30.5659 85.0521 30.3967 85.4434 30.4352C85.8346 30.4659 86.2335 30.4659 86.6324 30.4352C87.0083 30.4121 87.1924 30.5889 87.3074 30.9195C87.9902 32.9413 88.6729 34.9632 89.371 36.985C89.6088 37.6846 89.8849 38.3687 90.1227 39.0683C90.2685 39.4988 90.1764 39.6064 89.7392 39.6064C89.5551 39.6064 89.371 39.6064 89.1945 39.6064ZM86.0571 32.8568C85.9727 32.9259 85.9113 32.949 85.896 32.9874C85.5891 33.9253 85.2746 34.8555 84.9908 35.7934C84.9217 36.024 85.0828 36.1393 85.3206 36.1393C85.7272 36.1317 86.1414 36.1393 86.548 36.1317C86.9546 36.124 87.0466 35.9933 86.9239 35.6012C86.7321 34.9939 86.5557 34.3789 86.3639 33.7639C86.2795 33.4794 86.1721 33.1873 86.0571 32.8568Z" fill="#24242E"/>
<path d="M45.0936 30.4428C46.1829 30.4428 46.1983 30.4428 46.5588 31.4576C47.0881 32.9644 47.5867 34.4865 48.1007 35.9933C48.4612 37.0311 48.8371 38.0612 49.1977 39.099C49.3357 39.4911 49.2437 39.6064 48.8218 39.6064C48.4536 39.6064 48.0777 39.5987 47.7095 39.6064C47.3873 39.6141 47.1878 39.4834 47.1188 39.1375C47.0498 38.7915 46.9117 38.4533 46.812 38.1074C46.7276 37.8383 46.5588 37.723 46.2673 37.723C45.4465 37.7307 44.6334 37.7307 43.8126 37.723C43.5748 37.723 43.429 37.8075 43.3523 38.0382C43.2142 38.4533 43.0608 38.853 42.9227 39.2682C42.846 39.4988 42.7079 39.5987 42.4701 39.5911C42.1019 39.5834 41.726 39.5911 41.3578 39.5911C40.9052 39.5911 40.8055 39.4527 40.9513 39.0222C41.2428 38.2073 41.5419 37.3924 41.8258 36.5698C42.2937 35.2399 42.7463 33.9176 43.2066 32.5877C43.3983 32.0419 43.6055 31.5114 43.7819 30.9656C43.9046 30.5812 44.1117 30.3813 44.5413 30.4352C44.7331 30.4659 44.9172 30.4428 45.0936 30.4428ZM45.1243 32.8952C45.0783 32.9029 45.0323 32.9106 44.9786 32.9182C44.6794 33.8715 44.3649 34.8248 44.0811 35.7857C44.012 36.0163 44.1654 36.1393 44.4109 36.1393C44.8558 36.1393 45.3008 36.147 45.7534 36.147C46.0525 36.147 46.1292 35.9779 46.0449 35.7088C45.8301 34.9862 45.6153 34.2636 45.3928 33.5486C45.3161 33.3257 45.2087 33.1104 45.1243 32.8952Z" fill="#24242E"/>
<path d="M113.965 30.4429C115.1 30.4429 115.085 30.4506 115.453 31.5422C116.136 33.564 116.826 35.5782 117.524 37.6C117.7 38.1228 117.9 38.6301 118.076 39.1529C118.191 39.4835 118.092 39.6065 117.746 39.6141C117.34 39.6218 116.926 39.6141 116.519 39.6141C116.228 39.6141 116.059 39.4758 115.99 39.1683C115.913 38.807 115.775 38.461 115.675 38.1074C115.599 37.846 115.43 37.7384 115.161 37.7384C114.333 37.7461 113.497 37.723 112.668 37.7538C112.522 37.7614 112.315 37.8998 112.246 38.0382C112.07 38.4149 111.932 38.8223 111.809 39.2221C111.717 39.5219 111.541 39.6218 111.241 39.6141C110.912 39.5988 110.574 39.6141 110.244 39.6065C109.746 39.6065 109.661 39.4681 109.83 38.9915C110.237 37.846 110.651 36.7082 111.05 35.5628C111.579 34.056 112.101 32.5493 112.63 31.0425C112.822 30.489 112.891 30.4429 113.489 30.4506C113.658 30.4506 113.811 30.4429 113.965 30.4429ZM113.957 32.8952C113.919 32.8952 113.88 32.9029 113.842 32.9029C113.773 33.1258 113.704 33.3488 113.627 33.564C113.405 34.2559 113.175 34.9478 112.967 35.6397C112.86 35.9933 112.96 36.124 113.313 36.1317C113.735 36.1394 114.156 36.1394 114.571 36.1394C114.862 36.1394 114.97 35.9933 114.893 35.7242C114.67 34.9632 114.448 34.2098 114.21 33.4564C114.156 33.2642 114.049 33.0797 113.957 32.8952Z" fill="#24242E"/>
<path d="M37.4073 37.0235C37.53 36.8006 37.6527 36.6545 37.6988 36.4854C38.136 34.9094 38.5579 33.3258 38.9798 31.7498C39.0642 31.427 39.1563 31.1118 39.256 30.7966C39.3327 30.5352 39.5322 30.4429 39.7853 30.4429C40.1458 30.4429 40.4987 30.4429 40.8592 30.4506C41.2658 30.4583 41.3579 30.5506 41.2351 30.9349C40.9053 31.9728 40.5601 32.9952 40.2149 34.0254C39.6472 35.7243 39.0719 37.4156 38.5196 39.1145C38.3968 39.4835 38.1974 39.6296 37.8215 39.6065C37.5147 39.5912 37.2001 39.6527 36.9086 39.5912C36.7169 39.5527 36.4484 39.4066 36.3947 39.2375C35.9881 38.1228 35.6276 36.9928 35.2517 35.8627C34.8068 34.502 34.3618 33.1413 33.9092 31.7806C33.8019 31.4654 33.6714 31.1579 33.5794 30.8427C33.5104 30.6044 33.5794 30.4353 33.8709 30.4353C34.3312 30.4353 34.7914 30.4199 35.2517 30.4276C35.5815 30.4353 35.6506 30.7274 35.7196 30.9657C35.9344 31.7114 36.1339 32.4648 36.341 33.2182C36.6555 34.402 36.97 35.5936 37.2922 36.7775C37.2845 36.8467 37.3306 36.8928 37.4073 37.0235Z" fill="#24242E"/>
<path d="M60.1214 36.8774C60.2441 36.4546 60.3668 36.0241 60.4819 35.6012C60.9038 34.0714 61.3181 32.5416 61.7476 31.0118C61.8857 30.5121 62.0008 30.4429 62.4994 30.4506C62.8446 30.4582 63.1898 30.4506 63.535 30.4506C63.8265 30.4506 63.9262 30.5736 63.8265 30.8657C63.2742 32.5031 62.7372 34.1406 62.1926 35.778C61.8167 36.9004 61.4331 38.0305 61.0496 39.1529C60.9345 39.4835 60.735 39.6526 60.3592 39.6141C60.0677 39.5834 59.7685 39.5988 59.477 39.6141C59.1625 39.6295 58.9784 39.4758 58.8786 39.1836C58.4951 38.0074 58.1115 36.8236 57.7203 35.6474C57.2677 34.279 56.8074 32.9029 56.3548 31.5345C56.2705 31.2885 56.1861 31.0502 56.1094 30.8042C56.0403 30.5889 56.1017 30.4506 56.3548 30.4429C56.8151 30.4429 57.2754 30.4352 57.7356 30.4429C58.0041 30.4429 58.1499 30.6043 58.2189 30.8503C58.6332 32.3955 59.0474 33.9407 59.4616 35.4859C59.5537 35.8319 59.6381 36.1778 59.7531 36.5161C59.7992 36.6544 59.9066 36.7774 59.9909 36.9081C60.037 36.9004 60.0753 36.8851 60.1214 36.8774Z" fill="#24242E"/>
<path d="M105.81 35.8472C105.81 34.7863 105.81 33.7178 105.81 32.6569C105.81 32.1418 105.749 32.088 105.235 32.088C104.683 32.088 104.138 32.088 103.586 32.0957C103.248 32.1034 103.087 31.9727 103.11 31.6191C103.125 31.35 103.102 31.0809 103.118 30.8119C103.133 30.5505 103.271 30.4275 103.54 30.4275C105.672 30.4352 107.812 30.4429 109.945 30.4429C110.306 30.4429 110.467 30.5966 110.451 30.9502C110.444 31.1809 110.436 31.4115 110.451 31.6421C110.474 31.9804 110.306 32.1034 109.991 32.1034C109.431 32.0957 108.863 32.0957 108.303 32.0957C107.805 32.0957 107.72 32.1726 107.72 32.6723C107.72 34.771 107.72 36.8774 107.72 38.9761C107.72 39.5373 107.651 39.6141 107.076 39.6065C106.823 39.6065 106.562 39.6065 106.309 39.6065C105.887 39.5988 105.803 39.5142 105.803 39.076C105.803 37.9997 105.803 36.9235 105.81 35.8472C105.803 35.8472 105.803 35.8472 105.81 35.8472Z" fill="#24242E"/>
<path d="M50.5325 35.0093C50.5325 33.6794 50.5325 32.3494 50.5325 31.0118C50.5325 30.489 50.5938 30.4352 51.0925 30.4429C51.3763 30.4506 51.6524 30.4429 51.9363 30.4429C52.3275 30.4506 52.4349 30.5582 52.4349 30.9503C52.4272 33.0336 52.4272 35.1246 52.4196 37.208C52.4196 37.9152 52.4502 37.946 53.1483 37.9383C54.2223 37.9383 55.2962 37.9383 56.3702 37.9383C56.8151 37.9383 56.8841 38.0075 56.8688 38.4534C56.8688 38.6071 56.8611 38.7609 56.8688 38.9146C56.8764 39.5527 56.8304 39.5988 56.2167 39.5988C54.5061 39.5988 52.7954 39.5988 51.0848 39.5988C50.6092 39.5988 50.5401 39.5296 50.5401 39.0376C50.5325 37.7 50.5325 36.3547 50.5325 35.0093Z" fill="#24242E"/>
<path d="M128.202 35.0169C128.202 33.6716 128.202 32.3263 128.202 30.9809C128.202 30.5351 128.287 30.4428 128.739 30.4428C129.023 30.4428 129.299 30.4428 129.583 30.4351C129.989 30.4274 130.097 30.5197 130.105 30.9502C130.105 31.3961 130.105 31.8496 130.105 32.2955C130.105 34.548 130.105 36.8004 130.105 39.0529C130.105 39.5141 130.013 39.6064 129.537 39.5987C129.284 39.5987 129.023 39.5987 128.77 39.5987C128.279 39.5987 128.202 39.5141 128.202 39.0068C128.202 37.6768 128.202 36.3469 128.202 35.0169Z" fill="#24242E"/>
<path d="M102.144 35.0093C102.144 36.37 102.144 37.723 102.144 39.0837C102.144 39.545 102.074 39.6142 101.614 39.6065C101.323 39.5988 101.024 39.5988 100.732 39.6065C100.402 39.6142 100.233 39.4758 100.233 39.1299C100.233 36.3854 100.233 33.6486 100.233 30.9042C100.233 30.5813 100.387 30.4429 100.701 30.4429C101.062 30.4429 101.415 30.4352 101.775 30.4275C102.143 30.4198 102.136 30.6889 102.136 30.9349C102.136 31.719 102.136 32.4955 102.128 33.2796C102.136 33.8562 102.136 34.4328 102.144 35.0093C102.136 35.0093 102.144 35.0093 102.144 35.0093Z" fill="#24242E"/>
<path d="M10.0061 17.5739C10.3897 17.5739 10.7733 17.5431 11.1568 17.5893C11.3256 17.6046 11.5557 17.7353 11.6247 17.8737C12.016 18.704 12.3765 19.5573 12.737 20.4029C13.0439 21.1179 13.3354 21.8405 13.6422 22.5554C13.6883 22.6554 13.811 22.7476 13.9107 22.7707C13.9644 22.7861 14.0795 22.6477 14.1255 22.5554C14.8313 21.041 15.537 19.5188 16.2427 18.0044C16.3808 17.7123 16.5879 17.5585 16.9408 17.5662C17.5928 17.5893 18.2449 17.5739 18.8969 17.5739C19.3265 17.5739 19.4416 17.7276 19.2728 18.1197C18.8586 19.1114 18.429 20.0877 18.0148 21.0794C17.2016 23.0398 16.3885 25.0001 15.5753 26.9604C15.1151 28.0828 14.6548 29.2052 14.1792 30.3199C14.1485 30.3891 14.0641 30.4429 14.0028 30.5044C13.9261 30.4275 13.8187 30.366 13.7803 30.2738C13.4428 29.505 13.1053 28.7286 12.7754 27.9521C11.9393 25.9841 11.1108 24.0161 10.2746 22.0557C9.70697 20.7181 9.12397 19.3805 8.54864 18.0428C8.41056 17.7199 8.51795 17.5739 8.88617 17.5739C9.26205 17.5739 9.63793 17.5739 10.0061 17.5739Z" fill="#24242E"/>
</svg>
