<svg width="92" height="48" viewBox="0 0 92 48" fill="none" xmlns="http://www.w3.org/2000/svg">
<g clip-path="url(#clip0)">
<path d="M92.0002 0.0075662C91.7432 1.15006 91.5014 2.24716 91.252 3.35183C90.4736 6.77932 89.6953 10.1992 88.9244 13.6267C87.8438 18.401 86.7631 23.1677 85.69 27.942C85.0099 30.9533 84.3297 33.9647 83.6647 36.976C83.5967 37.2938 83.4758 37.3695 83.1659 37.3695C74.7171 37.3619 66.2607 37.3619 57.8119 37.3619C39.0325 37.3619 20.2532 37.3619 1.47381 37.3695C1.31511 37.3695 1.14885 37.3695 0.937256 37.3695C1.06573 36.7793 1.17153 36.2421 1.29244 35.7049C2.22952 31.5435 3.1666 27.3821 4.09612 23.2282C4.99541 19.2182 5.90226 15.2005 6.80156 11.1904C7.61016 7.60403 8.41877 4.02522 9.21227 0.43884C9.28028 0.128625 9.38608 0 9.74882 0C37.0148 0.0075662 64.2808 0.0075662 91.5543 0.0075662C91.6828 0.0075662 91.8188 0.0075662 92.0002 0.0075662ZM34.2111 1.84615C31.6795 13.0744 29.1554 24.28 26.6162 35.5385C26.8656 35.5385 27.0394 35.5385 27.2133 35.5385C32.0498 35.5385 36.8863 35.5385 41.7229 35.5385C45.917 35.5385 50.1112 35.5385 54.3054 35.546C54.5624 35.546 54.7135 35.5158 54.7815 35.2207C55.6581 31.2409 56.5499 27.2686 57.4416 23.2963C58.8623 16.9937 60.2906 10.691 61.7189 4.38083C61.9078 3.54855 62.0892 2.71627 62.2781 1.85372C52.8998 1.84615 43.5743 1.84615 34.2111 1.84615ZM32.3596 1.82346C32.148 1.82346 31.9893 1.82346 31.8306 1.82346C25.0293 1.82346 18.2279 1.82346 11.4265 1.82346C11.2905 1.82346 11.1469 1.83859 11.0109 1.82346C10.8068 1.80832 10.7237 1.89912 10.6859 2.09584C10.6179 2.46658 10.5196 2.82976 10.4365 3.2005C9.44654 7.59647 8.449 11.9849 7.45902 16.3808C6.20455 21.9496 4.95007 27.5259 3.69559 33.0946C3.51422 33.889 3.34041 34.6835 3.15904 35.5158C10.3836 35.5158 17.5553 35.5158 24.7648 35.5158C27.2888 24.3026 29.8129 13.0971 32.3596 1.82346ZM82.0248 35.5006C84.5489 24.2648 87.0578 13.0744 89.5819 1.83859C81.0424 1.83859 72.5709 1.83859 64.0767 1.83859C61.5602 13.0517 59.0437 24.2648 56.5196 35.5006C65.0592 35.5006 73.5306 35.5006 82.0248 35.5006Z" fill="#24242E"/>
<path d="M29.2083 43.6418C28.9438 44.1185 28.6793 44.5952 28.4223 45.0794C27.9765 45.9117 27.5381 46.744 27.0772 47.5687C27.0091 47.6897 26.8278 47.8184 26.6842 47.8335C25.7698 47.9092 25.7622 47.894 25.664 46.9861C25.4977 45.5334 25.339 44.0882 25.1803 42.6355C25.1728 42.5901 25.1879 42.5371 25.1879 42.4312C25.4675 42.4312 25.7396 42.4161 26.0116 42.4388C26.0796 42.4463 26.1779 42.5825 26.1854 42.6658C26.2912 43.8158 26.3895 44.9735 26.4953 46.1235C26.5104 46.2749 26.5406 46.4337 26.6389 46.5926C27.0469 45.8284 27.455 45.0718 27.8631 44.3076C28.1503 43.778 28.4374 43.2484 28.7019 42.7036C28.8153 42.4766 28.9589 42.4085 29.2007 42.4085C30.0395 42.4161 30.0546 42.4009 30.1378 43.2257C30.2436 44.2622 30.3267 45.3064 30.4174 46.3505C30.4249 46.4337 30.4401 46.517 30.4627 46.7213C30.7348 46.2068 30.9539 45.7982 31.1731 45.382C31.6039 44.5573 32.0422 43.7326 32.4427 42.8928C32.6089 42.5371 32.8054 42.348 33.2135 42.4161C33.3798 42.4463 33.5611 42.4236 33.8181 42.4236C33.5007 43.0138 33.2211 43.5283 32.9415 44.0428C32.3369 45.1475 31.7399 46.2522 31.1353 47.3568C30.901 47.7957 30.2662 48.0378 29.8128 47.8259C29.7448 47.7957 29.6995 47.6519 29.6919 47.5535C29.5634 46.3505 29.4425 45.1475 29.3216 43.9445C29.3141 43.8537 29.2989 43.7553 29.2914 43.6645C29.2612 43.6569 29.2309 43.6494 29.2083 43.6418Z" fill="#24242E"/>
<path d="M70.7117 45.5259C70.7117 44.0505 71.3843 42.9685 72.6387 42.4919C73.3037 42.2346 73.999 42.2119 74.6791 42.4313C75.586 42.7264 76.0848 43.3847 76.1528 44.3305C76.2586 45.6243 75.9336 46.7743 74.7849 47.5158C73.8856 48.0984 72.9032 48.1211 71.9284 47.7201C71.0895 47.3721 70.7117 46.6382 70.7117 45.5259ZM75.1023 44.8374C75.1023 43.9975 74.7774 43.4225 74.2408 43.2107C73.674 42.9837 72.9788 43.1653 72.4876 43.6873C71.9586 44.2548 71.7621 44.9509 71.7697 45.6999C71.7772 46.2977 71.9813 46.8273 72.6009 47.0543C73.2357 47.2888 73.795 47.0997 74.2635 46.6533C74.8303 46.1312 75.057 45.4654 75.1023 44.8374Z" fill="#24242E"/>
<path d="M18.4923 45.3292C18.4923 43.3165 20.1851 41.9092 22.2558 42.3783C23.2155 42.5978 23.8276 43.2787 23.9259 44.2775C24.0392 45.4351 23.7898 46.4868 22.883 47.2888C22.0442 48.0303 20.563 48.1968 19.5881 47.6671C18.7342 47.2056 18.4772 46.4263 18.4923 45.3292ZM22.8906 44.7163C22.8528 44.0807 22.6865 43.5133 22.0442 43.2333C21.4774 42.9836 20.7746 43.1652 20.2909 43.6722C19.7468 44.2396 19.5428 44.9509 19.5579 45.715C19.5654 46.2901 19.7619 46.8197 20.3665 47.0467C21.0088 47.2888 21.5832 47.1224 22.0668 46.6532C22.6109 46.1236 22.8452 45.4578 22.8906 44.7163Z" fill="#24242E"/>
<path d="M47.8213 45.9041C47.8288 43.3014 49.5821 41.8865 51.6679 42.3934C52.348 42.5599 52.8316 42.9685 53.1037 43.6191C53.61 44.8297 53.1642 46.6078 52.1062 47.3796C51.1691 48.0681 50.1262 48.1589 49.0682 47.7276C48.0933 47.3342 47.8288 46.4867 47.8213 45.9041ZM52.212 44.7465C52.2271 43.7175 51.5998 43.0441 50.7081 43.1349C50.1942 43.1879 49.771 43.43 49.4687 43.8461C48.9926 44.4968 48.8188 45.2308 48.9322 46.0252C49.0455 46.8348 49.8088 47.319 50.6023 47.1072C51.5167 46.8575 52.1969 45.8587 52.212 44.7465Z" fill="#24242E"/>
<path d="M37.8007 45.4048C37.6042 46.4489 38.1407 47.1299 39.2063 47.1299C39.758 47.1299 40.3172 46.9937 40.8915 46.918C40.884 46.9029 40.9142 46.9407 40.9066 46.971C40.7177 47.894 40.9595 47.7276 39.9544 47.894C39.5842 47.9546 39.1987 47.9697 38.8284 47.9546C37.5664 47.8865 36.8712 47.2282 36.7049 45.9798C36.4933 44.4136 37.4002 42.8323 38.7831 42.4388C39.2063 42.3177 39.69 42.2875 40.1207 42.348C41.224 42.5145 41.7984 43.43 41.6623 44.6935C41.5943 45.3669 41.5943 45.3669 40.9218 45.3669C39.9242 45.3669 38.9342 45.3669 37.9367 45.3745C37.8914 45.3821 37.8536 45.3972 37.8007 45.4048ZM40.6044 44.58C40.7102 43.831 40.4986 43.3921 39.9998 43.203C39.1232 42.8701 38.0501 43.6267 37.9669 44.58C38.836 44.58 39.7126 44.58 40.6044 44.58Z" fill="#24242E"/>
<path d="M80.8157 47.8412C81.0273 46.8197 81.2238 45.8739 81.4127 44.9282C81.4656 44.686 81.5185 44.4364 81.526 44.1867C81.5487 43.4301 81.0197 42.9912 80.2716 43.1577C79.5234 43.3166 79.0549 43.8386 78.8282 44.5196C78.5788 45.2535 78.4427 46.0253 78.2614 46.7819C78.2311 46.9029 78.2085 47.0316 78.1858 47.1526C78.0271 47.9244 77.9137 47.9925 77.0447 47.7882C77.1656 47.1905 77.2865 46.5927 77.4074 45.995C77.6266 44.913 77.8457 43.8311 78.0573 42.7415C78.1027 42.5145 78.1858 42.4086 78.4276 42.4237C78.6241 42.4389 78.8206 42.4237 79.0549 42.4237C79.0171 42.681 78.9869 42.8777 78.9717 43.0063C79.3723 42.8021 79.7879 42.4994 80.2413 42.3859C80.6494 42.2876 81.1255 42.333 81.5336 42.4464C82.2742 42.6432 82.6823 43.3998 82.5387 44.2926C82.3573 45.4048 82.1079 46.5095 81.8737 47.6217C81.8586 47.7125 81.7225 47.826 81.6318 47.8336C81.39 47.8639 81.1331 47.8412 80.8157 47.8412Z" fill="#24242E"/>
<path d="M62.8978 42.4237C62.6333 43.7176 62.3839 44.9508 62.1345 46.1766C62.0439 46.6078 61.9305 47.0315 61.8776 47.4704C61.8398 47.7882 61.7114 47.879 61.4166 47.8411C61.2579 47.8184 61.0917 47.8411 60.8876 47.8411C60.9179 47.5914 60.9405 47.3872 60.9708 47.1072C60.404 47.7655 59.7465 48.0227 58.953 47.9622C57.9101 47.8865 57.2224 47.0996 57.3811 46.0706C57.5625 44.9281 57.8043 43.8008 58.0386 42.6659C58.0613 42.5675 58.2049 42.4464 58.3031 42.4313C58.5374 42.3935 58.7716 42.4237 59.089 42.4237C58.9832 42.9609 58.8926 43.4452 58.7943 43.9294C58.6658 44.5574 58.5298 45.1854 58.4089 45.8134C58.22 46.7894 58.8699 47.372 59.807 47.0694C60.6685 46.7894 61.0463 46.0706 61.2579 45.2762C61.4695 44.4969 61.6358 43.71 61.7642 42.9155C61.8323 42.5221 61.9758 42.3632 62.3688 42.4237C62.5275 42.4464 62.6787 42.4237 62.8978 42.4237Z" fill="#24242E"/>
<path d="M0.00768479 43.9445C0.00768479 43.3014 -0.00742938 42.7869 0.022799 42.2724C0.0303561 42.1664 0.166384 42.0454 0.272183 41.9773C2.87182 40.2749 6.55968 40.4943 8.94772 42.4842C10.4289 43.7175 11.4189 45.2459 11.6607 47.2055C10.9277 44.6936 9.4087 42.9155 6.83929 42.2421C4.33034 41.5838 2.01031 41.9395 0.00768479 43.9445Z" fill="#24242E"/>
<path d="M12.8546 43.2712C12.4238 43.2712 12.0384 43.2712 11.6001 43.2712C11.6379 43.029 11.6379 42.8248 11.7059 42.6507C11.7437 42.5524 11.8797 42.4465 11.978 42.4389C12.318 42.4162 12.6581 42.4313 13.0284 42.4313C13.1266 42.0681 13.2098 41.7201 13.308 41.3796C13.7539 39.821 15.0915 39.541 16.0814 39.9345C16.021 40.169 15.9681 40.4036 15.9076 40.6381C14.638 40.623 14.1015 41.1526 14.1393 42.4389C14.57 42.4389 15.0008 42.4389 15.4844 42.4389C15.4391 42.6961 15.424 42.908 15.3635 43.1047C15.3409 43.1804 15.2124 43.2636 15.1217 43.2636C14.8345 43.2863 14.5398 43.2939 14.2526 43.2712C13.973 43.2485 13.8597 43.3544 13.7992 43.6268C13.5347 44.8903 13.24 46.1539 12.9906 47.425C12.9226 47.7958 12.7714 47.9092 12.4238 47.8639C12.2651 47.8412 12.1064 47.8639 11.8797 47.8639C12.2047 46.3052 12.5221 44.8147 12.8546 43.2712Z" fill="#24242E"/>
<path d="M47.8742 42.4237C47.1865 43.6267 46.5517 44.739 45.9245 45.8512C45.5995 46.4187 45.267 46.9786 44.9572 47.5612C44.8363 47.7806 44.7002 47.8563 44.4509 47.8487C43.6271 47.8336 43.612 47.8487 43.4835 47.024C43.2417 45.5107 43.0075 43.9975 42.7656 42.4237C43.083 42.4237 43.3702 42.401 43.6498 42.4389C43.7329 42.4464 43.8463 42.6053 43.8614 42.7112C44.0277 43.9218 44.1712 45.1249 44.3299 46.3355C44.3451 46.4414 44.3753 46.5397 44.4206 46.7365C44.8589 45.942 45.2519 45.2308 45.6449 44.5196C45.9698 43.937 46.3023 43.3619 46.6046 42.7642C46.7407 42.4994 46.8994 42.3859 47.1865 42.4237C47.383 42.4464 47.587 42.4237 47.8742 42.4237Z" fill="#24242E"/>
<path d="M64.9609 43.2636C64.5755 43.2636 64.2128 43.2636 63.8425 43.2636C63.8425 43.1425 63.8349 43.0669 63.8425 42.9988C63.9029 42.4313 63.9029 42.4313 64.4697 42.4238C65.1498 42.4238 65.1499 42.4238 65.2783 41.7806C65.4219 41.0997 65.5126 41.024 66.4799 40.8575C66.3817 41.372 66.2834 41.8714 66.1701 42.4238C66.6613 42.4238 67.1147 42.4238 67.621 42.4238C67.5757 42.6886 67.5681 42.908 67.4926 43.0971C67.4623 43.1728 67.3112 43.2485 67.2054 43.2485C66.8804 43.2712 66.5479 43.2333 66.223 43.2712C66.1172 43.2787 65.9585 43.4149 65.9358 43.5133C65.7317 44.4212 65.5428 45.3292 65.369 46.2447C65.233 46.9408 65.5428 47.2434 66.2456 47.1375C66.3817 47.1148 66.5177 47.0845 66.6462 47.0618C66.752 47.7655 66.6159 47.9395 65.9433 47.9698C65.8073 47.9773 65.6637 47.9773 65.5277 47.9773C64.7115 47.9546 64.1977 47.3493 64.3337 46.5398C64.4924 45.6091 64.6813 44.686 64.8627 43.763C64.9005 43.6041 64.9231 43.4603 64.9609 43.2636Z" fill="#24242E"/>
<path d="M54.2146 47.8487C54.3355 47.2812 54.4413 46.7667 54.5471 46.2522C54.9703 44.2623 55.3935 42.2724 55.8016 40.2749C55.862 39.9723 55.9678 39.8361 56.2852 39.8815C56.4666 39.9042 56.6555 39.889 56.8974 39.889C56.7538 40.57 56.6253 41.2056 56.4893 41.8411C56.0963 43.6873 55.6958 45.5258 55.3255 47.372C55.2499 47.7654 55.0912 47.9168 54.7058 47.8562C54.5698 47.8335 54.4186 47.8487 54.2146 47.8487Z" fill="#24242E"/>
<path d="M15.4846 47.826C16.0514 45.1627 16.6031 42.5448 17.1623 39.9042C17.5024 39.9042 17.8122 39.9042 18.1674 39.9042C18.0087 40.6835 17.85 41.4401 17.6913 42.1967C17.3285 43.9067 16.9431 45.6091 16.6106 47.3266C16.5275 47.7579 16.3688 47.9092 15.9607 47.8487C15.8171 47.826 15.666 47.8336 15.4846 47.826Z" fill="#24242E"/>
<path d="M69.8579 42.4237C69.6236 43.5511 69.3969 44.6179 69.1777 45.6848C69.0568 46.2598 68.9132 46.8348 68.815 47.4174C68.7621 47.7352 68.6412 47.8865 68.3087 47.8411C68.1273 47.8184 67.9384 47.8336 67.7117 47.8336C67.9233 46.8046 68.1273 45.8361 68.3314 44.8676C68.4749 44.1942 68.6336 43.5208 68.7545 42.8399C68.8074 42.5221 68.9208 42.3632 69.2609 42.4162C69.4422 42.4464 69.6236 42.4237 69.8579 42.4237Z" fill="#24242E"/>
<path d="M70.4094 40.1085C70.3414 40.4565 70.296 40.7516 70.2204 41.0391C70.1978 41.1148 70.0769 41.2207 70.0013 41.2207C69.7066 41.2434 69.4043 41.2283 69.0566 41.2283C69.1247 40.8802 69.17 40.5624 69.2531 40.2522C69.2682 40.1841 69.3892 40.1085 69.4647 40.1085C69.7595 40.1009 70.0617 40.1085 70.4094 40.1085Z" fill="#24242E"/>
<path d="M27.5154 34.3051C28.067 33.3517 28.5734 32.4514 29.0873 31.5661C30.4022 29.2735 31.7247 26.9886 33.0472 24.7036C35.1707 21.0188 37.2943 17.3341 39.4178 13.6493C41.3826 10.237 43.355 6.82462 45.3123 3.41227C45.4559 3.16258 45.6071 3.05665 45.9018 3.06422C47.2243 3.07935 48.5468 3.07179 49.8693 3.07179C49.9902 3.07179 50.1186 3.07179 50.2849 3.07179C51.6679 13.4829 53.0508 23.8637 54.4413 34.2672C54.3279 34.2824 54.2448 34.2975 54.1541 34.2975C52.8921 34.2975 51.6376 34.2975 50.3756 34.3051C50.1186 34.3051 50.0355 34.2294 50.0053 33.9722C49.6954 31.498 49.3554 29.0314 49.0455 26.5573C49.0153 26.3227 48.9246 26.2698 48.713 26.2698C44.7833 26.2698 40.8537 26.2773 36.924 26.2622C36.6595 26.2622 36.5234 26.3681 36.395 26.5875C34.9742 29.0617 33.5384 31.5358 32.1177 34.0176C31.9816 34.2521 31.838 34.3505 31.5584 34.3429C30.3644 34.3278 29.1628 34.3353 27.9688 34.3353C27.8479 34.3278 27.7194 34.3126 27.5154 34.3051ZM48.4032 21.8133C47.8288 17.4703 47.2545 13.1651 46.6877 8.85993C46.6575 8.85237 46.6273 8.8448 46.6046 8.83723C44.1259 13.1424 41.6471 17.4476 39.1382 21.8133C42.2442 21.8133 45.2821 21.8133 48.4032 21.8133Z" fill="#24242E"/>
<path d="M12.8925 17.4855C17.5855 17.4855 22.2558 17.4855 26.9638 17.4855C26.7371 18.4843 26.5255 19.4376 26.3064 20.3909C26.2308 20.7239 26.1326 21.0492 26.0948 21.3897C26.0494 21.7604 25.8983 21.8739 25.5129 21.8739C21.432 21.8588 17.3512 21.8664 13.2704 21.8664C12.953 21.8664 12.6356 21.8966 12.3258 21.8588C11.9479 21.8134 11.8345 21.9723 11.759 22.3128C11.0864 25.3619 10.3911 28.4036 9.70344 31.4452C9.50696 32.3153 9.31803 33.1854 9.09888 34.0555C9.06865 34.1614 8.92506 34.3203 8.83438 34.3203C7.48922 34.3355 6.1365 34.3279 4.79133 34.3203C4.76866 34.3203 4.74599 34.2976 4.67798 34.2674C4.85179 33.5107 5.01805 32.7466 5.19186 31.9748C6.22718 27.4124 7.25495 22.85 8.29027 18.2875C9.40116 13.3695 10.5196 8.45147 11.6154 3.53344C11.6834 3.21566 11.7816 3.07947 12.1444 3.07947C18.2807 3.10217 24.4095 3.10217 30.5459 3.10973C30.629 3.10973 30.7197 3.10973 30.8633 3.10973C30.5308 4.56244 30.1983 5.96976 29.8658 7.42247C29.7071 7.42247 29.5559 7.42247 29.4048 7.42247C24.8101 7.42247 20.2078 7.43004 15.6131 7.4149C15.2428 7.4149 15.0992 7.51326 15.0161 7.88401C14.3359 10.9937 13.6256 14.0959 12.9228 17.198C12.9152 17.2812 12.9076 17.3645 12.8925 17.4855Z" fill="#24242E"/>
<path d="M58.0234 34.2673C58.3333 32.913 58.628 31.5738 58.9303 30.2421C59.8825 26.0202 60.8422 21.8058 61.802 17.5839C62.8826 12.8247 63.9633 8.06558 65.0289 3.30643C65.0893 3.02648 65.2027 2.97352 65.452 2.97352C69.2306 2.98109 73.0091 2.93569 76.7877 2.99622C78.4729 3.01892 80.1657 3.2686 81.6998 4.03279C83.8611 5.11476 85.1836 6.90038 85.7353 9.26104C86.5892 12.9306 85.2894 15.8663 82.6293 18.3102C80.8761 19.9218 78.8432 21.0416 76.5156 21.5939C76.1378 21.6847 75.7524 21.7301 75.3216 21.8058C77.0975 25.9597 78.8734 30.0908 80.672 34.29C80.4755 34.2976 80.3319 34.3127 80.1884 34.3127C79.0548 34.3127 77.9212 34.2976 76.7877 34.3203C76.4174 34.3279 76.236 34.2219 76.0924 33.8739C74.4677 30.0378 72.8127 26.2169 71.1803 22.3808C71.0141 21.995 70.8403 21.8361 70.3944 21.8436C68.8074 21.8815 67.2204 21.8588 65.6334 21.8588C65.4974 21.8588 65.3614 21.8588 65.2102 21.8588C64.7417 23.9243 64.2883 25.9596 63.8273 27.995C63.3739 29.9924 62.928 31.9975 62.4821 33.995C62.4368 34.1917 62.3914 34.3127 62.1572 34.3127C60.8573 34.3052 59.5651 34.3052 58.2653 34.3052C58.1897 34.3127 58.1217 34.29 58.0234 34.2673ZM66.3287 17.4477C66.5478 17.4477 66.6914 17.4477 66.8426 17.4477C69.4875 17.4477 72.1325 17.4325 74.7775 17.4552C76.3343 17.4704 77.7096 17.0315 78.949 16.0858C80.2639 15.0794 81.2993 13.9445 81.4277 12.1816C81.5486 10.4868 80.9667 9.13998 79.5762 8.17907C78.6996 7.57377 77.6794 7.39218 76.629 7.39218C74.0747 7.37705 71.5128 7.38462 68.9585 7.37705C68.7092 7.37705 68.6185 7.46028 68.558 7.7024C68.0744 9.8739 67.568 12.0454 67.0693 14.2093C66.835 15.261 66.5932 16.3127 66.3287 17.4477Z" fill="#24242E"/>
</g>
<defs>
<clipPath id="clip0">
<rect width="92" height="48" fill="white"/>
</clipPath>
</defs>
</svg>
