<svg width="58" height="43" viewBox="0 0 58 43" fill="none" xmlns="http://www.w3.org/2000/svg">
<mask id="mask0" mask-type="alpha" maskUnits="userSpaceOnUse" x="0" y="0" width="58" height="43">
<path d="M19.9537 0.000201948L57.4537 0L37.5 42.9998L0 43L19.9537 0.000201948Z" fill="#2A58ED"/>
</mask>
<g mask="url(#mask0)">
<path d="M20.0847 31.0884H2.3064" stroke="white" stroke-miterlimit="10"/>
<path d="M-7.47428 31.0885H-10.5511C-11.4986 31.0885 -12.2627 30.3154 -12.2627 29.3795V8.70898C-12.2627 7.76294 -11.4986 7 -10.5511 7H22.326C22.7845 7 23.2124 7.1831 23.5384 7.49845L34.5008 18.4441C34.8268 18.7696 35 19.1968 35 19.6546V29.3795C35 30.3255 34.2359 31.0885 33.2884 31.0885H29.8652" stroke="white" stroke-miterlimit="10"/>
<path d="M26.0243 9.99072H-8.05495C-8.51342 9.99072 -8.89038 10.3671 -8.89038 10.8249V16.5113C-8.89038 16.9691 -8.51342 17.3454 -8.05495 17.3454H33.3802" stroke="white" stroke-miterlimit="10"/>
<path d="M17.0181 9.99072V31.0885" stroke="white" stroke-miterlimit="10"/>
<path d="M-2.58406 35.9712C0.116776 35.9712 2.30624 33.7851 2.30624 31.0884C2.30624 28.3917 0.116776 26.2056 -2.58406 26.2056C-5.2849 26.2056 -7.47437 28.3917 -7.47437 31.0884C-7.47437 33.7851 -5.2849 35.9712 -2.58406 35.9712Z" stroke="white" stroke-miterlimit="10"/>
<path d="M24.975 35.9712C27.6759 35.9712 29.8653 33.7851 29.8653 31.0884C29.8653 28.3917 27.6759 26.2056 24.975 26.2056C22.2742 26.2056 20.0847 28.3917 20.0847 31.0884C20.0847 33.7851 22.2742 35.9712 24.975 35.9712Z" stroke="white" stroke-miterlimit="10"/>
<path d="M35 21.4043H30.9859C30.4459 21.4043 30.0078 21.8417 30.0078 22.3809V23.9067C30.0078 24.4459 30.4459 24.8833 30.9859 24.8833H35" stroke="white" stroke-miterlimit="10"/>
<path d="M22.7641 21.4043H19.5039" stroke="white" stroke-miterlimit="10"/>
<path d="M35.0001 28.1079H31.8826" stroke="white" stroke-miterlimit="10"/>
<path d="M25.9021 31.0884H24.4248" stroke="white" stroke-miterlimit="10"/>
</g>
</svg>
