<svg width="58" height="43" viewBox="0 0 58 43" fill="none" xmlns="http://www.w3.org/2000/svg">
<mask id="mask0" mask-type="alpha" maskUnits="userSpaceOnUse" x="0" y="0" width="58" height="43">
<path d="M19.9537 0.000201948L57.4537 0L37.5 42.9998L0 43L19.9537 0.000201948Z" fill="#2A58ED"/>
</mask>
<g mask="url(#mask0)">
<path d="M34.3727 14.707H12.5132V13.5738H12.5475C13.1157 13.5738 13.5779 13.1116 13.5779 12.5435V9.84751H23.1939C24.0556 9.84751 24.7565 9.14646 24.7565 8.28484C24.7565 7.42322 24.0555 6.72217 23.1939 6.72217H6.69192C5.2432 6.72217 4.06463 7.90081 4.06463 9.34946V12.5434C4.06463 13.1116 4.52681 13.5738 5.09498 13.5738H5.12925V14.7069H5.09498C3.93978 14.707 3 15.6468 3 16.802V34.3686C3 34.6436 3.22299 34.8666 3.49805 34.8666H13.0799C13.3549 34.8666 13.5779 34.6436 13.5779 34.3686V22.6575C13.5779 21.171 14.7872 19.9616 16.2738 19.9616H29.6161V21.0606C29.6161 21.6288 30.0783 22.091 30.6465 22.091H34.905C35.4732 22.091 35.9354 21.6288 35.9354 21.0606V19.9616H35.9696C36.5378 19.9616 37 19.4995 37 18.9313V17.3344C37 15.8856 35.8214 14.707 34.3727 14.707ZM6.12534 13.5738H8.8215C9.09656 13.5738 9.31955 13.3508 9.31955 13.0757C9.31955 12.8007 9.09656 12.5777 8.8215 12.5777H5.09498C5.07606 12.5777 5.06072 12.5623 5.06072 12.5434V9.34946C5.06072 8.44999 5.79252 7.71826 6.69192 7.71826H23.1939C23.5063 7.71826 23.7605 7.97246 23.7605 8.28484C23.7605 8.59721 23.5063 8.85142 23.1939 8.85142H13.0799C12.8048 8.85142 12.5818 9.07441 12.5818 9.34946V12.5434C12.5818 12.5623 12.5665 12.5777 12.5476 12.5777H10.9505C10.6754 12.5777 10.4524 12.8007 10.4524 13.0757C10.4524 13.3508 10.6754 13.5738 10.9505 13.5738H11.5172V14.7069H6.12534V13.5738ZM36.0039 18.9312C36.0039 18.9501 35.9886 18.9655 35.9696 18.9655H33.3079C33.0329 18.9655 32.8099 19.1885 32.8099 19.4635C32.8099 19.7386 33.0329 19.9616 33.3079 19.9616H34.9393V21.0605C34.9393 21.0795 34.9239 21.0948 34.905 21.0948H30.6465C30.6275 21.0948 30.6122 21.0795 30.6122 21.0605V19.9616H31.1786C31.4537 19.9616 31.6767 19.7386 31.6767 19.4635C31.6767 19.1885 31.4537 18.9655 31.1786 18.9655H16.2737C14.238 18.9655 12.5818 20.6217 12.5818 22.6575V33.8704H3.99609V16.802C3.99609 16.196 4.48903 15.7031 5.09498 15.7031H34.3726C35.2721 15.7031 36.0038 16.4349 36.0038 17.3343V18.9312H36.0039Z" fill="white"/>
<path d="M32.7759 23.2241C32.5008 23.2241 32.2778 23.4471 32.2778 23.7222V24.7868C32.2778 25.0618 32.5008 25.2848 32.7759 25.2848C33.0509 25.2848 33.2739 25.0618 33.2739 24.7868V23.7222C33.2739 23.4471 33.0509 23.2241 32.7759 23.2241Z" fill="white"/>
<path d="M32.7759 29.6118C32.5008 29.6118 32.2778 29.8348 32.2778 30.1099V31.1745C32.2778 31.4495 32.5008 31.6725 32.7759 31.6725C33.0509 31.6725 33.2739 31.4495 33.2739 31.1745V30.1099C33.2739 29.8348 33.0509 29.6118 32.7759 29.6118Z" fill="white"/>
<path d="M32.7759 26.418C32.5008 26.418 32.2778 26.641 32.2778 26.916V27.9806C32.2778 28.2557 32.5008 28.4787 32.7759 28.4787C33.0509 28.4787 33.2739 28.2557 33.2739 27.9806V26.916C33.2739 26.6409 33.0509 26.418 32.7759 26.418Z" fill="white"/>
<path d="M32.7759 32.8057C32.5008 32.8057 32.2778 33.0287 32.2778 33.3037V34.3683C32.2778 34.6434 32.5008 34.8664 32.7759 34.8664C33.0509 34.8664 33.2739 34.6434 33.2739 34.3683V33.3037C33.2739 33.0287 33.0509 32.8057 32.7759 32.8057Z" fill="white"/>
<path d="M35.0559 25.2776C35.3297 25.251 35.5301 25.0076 35.5036 24.7338L35.4008 23.6742C35.3743 23.4004 35.131 23.1998 34.857 23.2265C34.5832 23.2531 34.3828 23.4965 34.4093 23.7703L34.5121 24.83C34.5371 25.0873 34.7539 25.2799 35.0073 25.2799C35.0233 25.2799 35.0396 25.2792 35.0559 25.2776Z" fill="white"/>
<path d="M35.6726 31.6356C35.9464 31.609 36.1469 31.3655 36.1203 31.0918L36.0175 30.032C35.9909 29.7583 35.7477 29.5578 35.4737 29.5844C35.1999 29.611 34.9995 29.8544 35.026 30.1282L35.1288 31.1879C35.1538 31.4453 35.3706 31.6379 35.624 31.6379C35.64 31.6379 35.6563 31.6372 35.6726 31.6356Z" fill="white"/>
<path d="M35.3643 28.4567C35.6381 28.4302 35.8385 28.1867 35.8119 27.9129L35.7091 26.8533C35.6826 26.5795 35.4391 26.3792 35.1653 26.4057C34.8915 26.4322 34.6911 26.6757 34.7177 26.9495L34.8205 28.0091C34.8455 28.2666 35.0622 28.4591 35.3156 28.4591C35.3317 28.4591 35.348 28.4583 35.3643 28.4567Z" fill="white"/>
<path d="M36.3258 33.2112C36.2993 32.9374 36.0558 32.7372 35.782 32.7636C35.5082 32.7901 35.3078 33.0336 35.3344 33.3074L35.4372 34.3671C35.4622 34.6245 35.6789 34.817 35.9323 34.817C35.9484 34.817 35.9647 34.8162 35.981 34.8146C36.2548 34.7881 36.4552 34.5446 36.4286 34.2708L36.3258 33.2112Z" fill="white"/>
<path d="M30.6946 23.2265C30.4208 23.1999 30.1774 23.4003 30.1508 23.6741L30.048 24.7338C30.0215 25.0076 30.2219 25.251 30.4957 25.2776C30.512 25.2792 30.5283 25.28 30.5443 25.28C30.7977 25.28 31.0145 25.0874 31.0395 24.83L31.1423 23.7704C31.1688 23.4965 30.9684 23.253 30.6946 23.2265Z" fill="white"/>
<path d="M30.0777 29.5844C29.804 29.5577 29.5604 29.7583 29.5339 30.0321L29.4311 31.0918C29.4045 31.3656 29.6049 31.609 29.8787 31.6356C29.8951 31.6372 29.9113 31.638 29.9274 31.638C30.1808 31.638 30.3976 31.4454 30.4225 31.188L30.5253 30.1283C30.5519 29.8544 30.3515 29.611 30.0777 29.5844Z" fill="white"/>
<path d="M30.386 26.4057C30.1115 26.3791 29.8688 26.5795 29.8422 26.8533L29.7394 27.913C29.7129 28.1868 29.9133 28.4302 30.1871 28.4568C30.2035 28.4584 30.2197 28.4592 30.2357 28.4592C30.4892 28.4592 30.7059 28.2666 30.7309 28.0092L30.8337 26.9496C30.8602 26.6757 30.6598 26.4323 30.386 26.4057Z" fill="white"/>
<path d="M29.7693 32.7636C29.4949 32.7369 29.2521 32.9375 29.2255 33.2113L29.1227 34.271C29.0962 34.5448 29.2966 34.7882 29.5704 34.8148C29.5868 34.8164 29.603 34.8172 29.619 34.8172C29.8724 34.8172 30.0892 34.6246 30.1142 34.3672L30.217 33.3075C30.2435 33.0336 30.043 32.7902 29.7693 32.7636Z" fill="white"/>
</g>
</svg>
