<svg width="31" height="31" viewBox="0 0 31 31" fill="none" xmlns="http://www.w3.org/2000/svg">
<g clip-path="url(#clip0)">
<path d="M30.7237 22.4327C30.6404 22.2932 30.125 21.1732 27.6448 18.8713C25.0483 16.4609 25.3971 16.8523 28.5245 12.6844C30.4292 10.1461 31.1907 8.596 30.9523 7.93332C30.7256 7.30165 29.3247 7.46829 29.3247 7.46829L24.6666 7.49541C24.6666 7.49541 24.3217 7.44891 24.064 7.60198C23.8141 7.75312 23.6532 8.1019 23.6532 8.1019C23.6532 8.1019 22.915 10.0667 21.9307 11.7369C19.8555 15.2615 19.0242 15.4475 18.6851 15.2285C17.8965 14.7189 18.0941 13.1785 18.0941 12.0857C18.0941 8.66963 18.6115 7.24546 17.0846 6.87731C16.577 6.75523 16.2049 6.67385 14.9087 6.66029C13.2462 6.64285 11.8375 6.6661 11.0411 7.05557C10.5102 7.31521 10.1014 7.89457 10.3513 7.92751C10.6594 7.9682 11.357 8.11546 11.727 8.61925C12.2056 9.26836 12.1882 10.7293 12.1882 10.7293C12.1882 10.7293 12.4634 14.75 11.5468 15.2499C10.9171 15.5928 10.0549 14.8933 8.20441 11.6943C7.25691 10.057 6.53998 8.24528 6.53998 8.24528C6.53998 8.24528 6.40241 7.90813 6.15632 7.72793C5.85793 7.50898 5.4394 7.43922 5.4394 7.43922L1.00994 7.46635C1.00994 7.46635 0.345333 7.48573 0.10119 7.77444C-0.115826 8.03214 0.0837512 8.56306 0.0837512 8.56306C0.0837512 8.56306 3.55213 16.676 7.4778 20.7663C11.0799 24.5157 15.1683 24.2696 15.1683 24.2696H17.0207C17.0207 24.2696 17.5807 24.2076 17.8655 23.8995C18.129 23.6166 18.1193 23.0857 18.1193 23.0857C18.1193 23.0857 18.0825 20.5997 19.2374 20.2335C20.3748 19.8731 21.8357 22.6362 23.3839 23.6999C24.5542 24.5041 25.4436 24.3277 25.4436 24.3277L29.5844 24.2696C29.5844 24.2696 31.7507 24.1359 30.7237 22.4327Z" fill="white"/>
</g>
<defs>
<clipPath id="clip0">
<rect width="31" height="31" fill="white"/>
</clipPath>
</defs>
</svg>
